<?xml version="1.0" encoding="UTF-8" standalone="no"?>
<!-- Created with Inkscape (http://www.inkscape.org/) -->

<svg
   xmlns:dc="http://purl.org/dc/elements/1.1/"
   xmlns:cc="http://creativecommons.org/ns#"
   xmlns:rdf="http://www.w3.org/1999/02/22-rdf-syntax-ns#"
   xmlns:svg="http://www.w3.org/2000/svg"
   xmlns="http://www.w3.org/2000/svg"
   xmlns:sodipodi="http://sodipodi.sourceforge.net/DTD/sodipodi-0.dtd"
   xmlns:inkscape="http://www.inkscape.org/namespaces/inkscape"
   width="744.09448819"
   height="1052.3622047"
   id="svg2987"
   version="1.1"
   inkscape:version="0.48.5 r10040"
   sodipodi:docname="ocean_base.svg">
  <defs
     id="defs2989" />
  <sodipodi:namedview
     id="base"
     pagecolor="#ffffff"
     bordercolor="#ffffff"
     borderopacity="0.0"
     inkscape:pageopacity="0.0"
     inkscape:pageshadow="0"
     inkscape:zoom="0.88867187"
     inkscape:cx="350"
     inkscape:cy="610.02198"
     inkscape:document-units="px"
     inkscape:current-layer="layer1"
     showgrid="false"
     inkscape:window-width="1600"
     inkscape:window-height="847"
     inkscape:window-x="-8"
     inkscape:window-y="-8"
     inkscape:window-maximized="1" />
  <metadata
     id="metadata2992">
    <rdf:RDF>
      <cc:Work
         rdf:about="">
        <dc:format>image/svg+xml</dc:format>
        <dc:type
           rdf:resource="http://purl.org/dc/dcmitype/StillImage" />
        <dc:title></dc:title>
      </cc:Work>
    </rdf:RDF>
  </metadata>
  <g
     inkscape:label="Layer 1"
     inkscape:groupmode="layer"
     id="layer1">
    <path
       style="fill:#008000;stroke:#000000;stroke-width:1px;stroke-linecap:butt;stroke-linejoin:miter;stroke-opacity:1"
       d="m 294.82198,212.90723 c -4.07923,0.56526 -8.30815,-0.67831 -12.37802,0 -0.36999,0.0617 0,0.75019 0,1.12528 0,0.37509 0,0.75018 0,1.12527 0,3.59176 -0.43306,5.78187 2.25055,9.0022 0.86579,1.03895 2.22898,1.53377 3.37582,2.25055 1.85469,1.15918 3.59567,2.56354 5.62637,3.37582 1.96409,0.78564 12.41832,2.04712 13.5033,2.25055 3.39894,0.63731 6.69045,1.86866 10.12747,2.25055 3.35518,0.3728 6.75685,-0.18725 10.12748,0 3.39137,0.18841 6.7361,0.93687 10.12747,1.12528 3.37063,0.18725 6.77229,-0.3728 10.12747,0 3.43702,0.38189 6.71635,1.68203 10.12747,2.25055 26.86753,4.47792 -6.92729,-3.04953 20.25495,4.5011 11.20457,3.11238 8.76455,0.35483 18.00439,6.75164 2.40866,1.66754 4.5011,3.75092 6.75165,5.62638 4.9749,4.14575 8.90349,6.7319 12.37802,12.37802 1.49715,2.43286 2.03154,5.35638 3.37583,7.87692 1.66523,3.1223 3.96115,5.8799 5.62637,9.0022 2.83115,5.3084 4.8971,12.44074 6.75165,18.0044 1.12528,3.37582 2.67796,6.63814 3.37583,10.12747 1.4309,7.15454 1.12527,15.23061 1.12527,22.50549 0,3.37583 0,6.75165 0,10.12748 0,8.25201 0,16.50403 0,24.75604 0,2.62564 0.63681,5.32968 0,7.87692 -0.53046,2.12184 -2.31365,3.71447 -3.37582,5.62638 -0.81465,1.46636 -1.32007,3.10536 -2.25055,4.5011 -4.96528,7.4479 -3.56375,3.7826 -9.0022,10.12747 -0.88014,1.02683 -1.46448,2.27532 -2.25055,3.37582 -3.30122,4.62171 -2.97445,3.63384 -5.62637,7.87693 -1.15919,1.85469 -2.16262,3.80656 -3.37583,5.62637 -1.04032,1.56047 -2.25055,3.00073 -3.37582,4.5011 -1.12528,1.50036 -2.1553,3.07714 -3.37583,4.5011 -1.03565,1.20826 -2.34017,2.16756 -3.37582,3.37582 -0.16518,0.19271 -6.6929,8.95185 -6.75165,9.0022 -1.27362,1.09168 -3.10537,1.32006 -4.5011,2.25055 -7.58991,5.05994 6.47828,-0.89872 -7.87692,5.62637 -13.812,4.604 -0.12107,-0.5021 -12.37802,5.62638 -2.55504,1.27751 -5.13023,2.59105 -7.87693,3.37582 -4.86676,1.3905 -8.66595,1.12527 -13.50329,1.12527 -4.87619,0 -9.75238,0 -14.62857,0 -1.87546,0 -3.75092,0 -5.62638,0 -1.12527,0 -2.29384,0.30914 -3.37582,0 -1.61292,-0.46083 -3.00074,-1.50036 -4.5011,-2.25054 -0.75018,-0.3751 -1.65748,-0.53221 -2.25055,-1.12528 -0.59307,-0.59307 -0.75018,-1.50037 -1.12528,-2.25055 -0.75018,-1.50037 -1.78971,-2.88818 -2.25055,-4.5011 -0.30913,-1.08198 0.30914,-2.29384 0,-3.37582 -2.25054,-7.87693 -1.68791,-1.68791 -3.37582,-6.75165 -0.23723,-0.71169 0.23723,-1.53886 0,-2.25055 -0.26523,-0.79569 -0.75018,-1.50037 -1.12527,-2.25055 -0.3751,-0.75018 -0.66004,-1.55268 -1.12528,-2.25055 -1.71665,-2.57497 -0.89073,0.70362 -2.25055,-3.37582 -0.11861,-0.35585 0.11862,-0.76943 0,-1.12528 -0.78461,-2.35382 -2.45366,-4.44625 -3.37582,-6.75165 -0.44053,-1.1013 -0.46732,-2.38889 -1.12528,-3.37582 -0.20806,-0.3121 -0.95753,0.33549 -1.12527,0 -0.33549,-0.67098 0.14712,-1.51493 0,-2.25055 -0.23262,-1.16311 -0.89265,-2.21271 -1.12528,-3.37582 -0.14712,-0.73562 0.14713,-1.51494 0,-2.25055 -0.23262,-1.16311 -0.83759,-2.2251 -1.12527,-3.37583 -0.091,-0.36389 0.11861,-0.76943 0,-1.12527 -0.26523,-0.79569 -0.92185,-1.43686 -1.12528,-2.25055 -0.18194,-0.72779 0.18195,-1.52277 0,-2.25055 -0.20342,-0.81369 -0.92185,-1.43686 -1.12527,-2.25055 -0.18195,-0.72779 0.18195,-1.52277 0,-2.25055 -0.20342,-0.81369 -0.96079,-1.42811 -1.12528,-2.25055 -0.22068,-1.10342 0.15914,-2.26186 0,-3.37582 -0.21871,-1.531 -0.90656,-2.9701 -1.12527,-4.5011 -0.15914,-1.11397 0.30914,-2.29385 0,-3.37583 -0.46083,-1.61292 -1.58977,-2.95927 -2.25055,-4.5011 -2.08833,-4.87276 0.017,-2.44846 -3.37582,-7.87692 -0.99399,-1.59038 -2.44534,-2.87274 -3.37583,-4.5011 -3.18772,-9.56318 1.2581,2.09683 -3.37582,-5.62637 -1.62531,-2.70885 -0.42879,-3.34917 -2.25055,-5.62637 -0.99413,-1.24266 -2.421,-2.10273 -3.37583,-3.37583 -0.22505,-0.30007 0.11862,-0.76943 0,-1.12527 -0.26523,-0.79569 -0.66003,-1.55269 -1.12527,-2.25055 -1.03203,-1.54804 -1.73598,-1.15732 -3.37582,-2.25055 -0.44137,-0.29425 -0.62204,-0.95753 -1.12528,-1.12528 -1.01275,-0.33758 -2.36308,0.33759 -3.37582,0 -0.79569,-0.26523 -1.42323,-0.98739 -2.25055,-1.12527 -1.47996,-0.24666 -3.00074,0 -4.5011,0 -3.00073,0 -6.00147,0 -9.0022,0 -1.50037,0 -3.01581,0.21218 -4.5011,0 -1.17422,-0.16775 -2.23532,-0.79942 -3.37582,-1.12528 -1.48704,-0.42486 -3.07961,-0.51606 -4.5011,-1.12527 -1.24306,-0.53274 -2.13276,-1.71781 -3.37583,-2.25055 -1.42149,-0.60921 -3.03392,-0.63622 -4.50109,-1.12528 -0.79569,-0.26523 -1.43687,-0.92185 -2.25055,-1.12527 -0.72779,-0.18195 -1.50037,0 -2.25055,0 -1.50037,0 -3.00074,0 -4.5011,0 -2.10937,0 -2.67514,-0.33549 -4.5011,1.12527 -1.24266,0.99413 -2.25055,2.25055 -3.37583,3.37583 -1.50036,1.50036 -3.00073,3.00073 -4.50109,4.5011 -1.12528,1.12527 -2.5324,2.02634 -3.37583,3.37582 -1.53823,2.46118 -2.45612,7.74167 -4.5011,10.12747 -1.22053,1.42396 -3.50711,1.78544 -4.5011,3.37583 -1.01367,1.62188 -0.34849,3.87862 -1.12527,5.62637 -0.7617,1.71382 -2.5371,2.82364 -3.37583,4.5011 -2.19243,4.38488 -0.0384,4.00563 -2.25055,7.87692 -0.93048,1.62836 -2.44533,2.87275 -3.37582,4.5011 -0.58849,1.02986 -0.79942,2.23532 -1.12527,3.37583 -2.31032,8.0861 0.0699,0.84571 -2.25055,10.12747 -0.28769,1.15073 -0.97816,2.19884 -1.12528,3.37582 -0.23262,1.86098 0.36781,3.78734 0,5.62638 -0.39614,1.9807 -1.67012,3.69163 -2.25055,5.62637 -1.09916,3.66388 -1.3228,7.54176 -2.25055,11.25275 -0.28768,1.15073 -0.79941,2.23532 -1.12527,3.37582 -0.81575,2.85512 -1.09426,5.1789 -2.25055,7.87693 -0.87851,2.04986 -3.06536,5.39318 -3.37583,7.87692 -0.23262,1.86097 0.20711,3.76238 0,5.62637 -0.10301,0.9271 -1.64089,6.65762 -2.25054,7.87693 -0.97812,1.95623 -2.48755,3.62773 -3.37583,5.62637 -0.62811,1.41325 -0.75018,3.00073 -1.12527,4.5011 -0.75019,1.87546 -1.34721,3.81969 -2.25055,5.62637 -0.97812,1.95624 -2.56354,3.59567 -3.37583,5.62637 -0.7103,1.77576 -1.2422,8.11079 -2.25055,10.12748 -0.47445,0.94891 -1.70471,1.34082 -2.25055,2.25055 -0.61026,1.01711 -0.59481,2.3149 -1.12527,3.37582 -0.23723,0.47446 -0.95753,0.62204 -1.12528,1.12528 -0.23722,0.71168 0,1.50036 0,2.25055 0,0.37509 -0.26523,0.86004 0,1.12527 0.23053,0.23053 5.1692,-0.85097 0,2.25055 -1.32614,0.79569 -3.15832,0.35797 -4.50109,1.12527 -1.38171,0.78955 -2.08087,2.45086 -3.37583,3.37583 -1.365,0.975 -3.13609,1.27554 -4.5011,2.25055 -1.29496,0.92497 -2.11966,2.39881 -3.37582,3.37582 -2.13506,1.6606 -4.61659,2.8405 -6.75165,4.5011 -2.93104,2.2797 -4.94589,5.59723 -7.87692,7.87692 -1.72643,1.34278 -3.80657,2.16262 -5.62638,3.37583 -1.56047,1.04031 -3.00073,2.25055 -4.5011,3.37582 -1.50036,1.12528 -3.07714,2.15529 -4.50109,3.37583 -1.20827,1.03565 -2.16757,2.34017 -3.37583,3.37582 -4.078452,3.49582 -8.888109,5.93958 -12.378022,10.12747 -0.865793,1.03895 -1.29425,2.41953 -2.250549,3.37583 -3.250186,3.25018 -6.757163,3.94305 -10.127473,6.75165 -1.222531,1.01877 -2.250549,2.25055 -3.375824,3.37582 -0.750183,0.75018 -1.301635,1.77609 -2.250549,2.25055 -1.38327,0.69163 -3.053027,0.58225 -4.501099,1.12527 -18.68963,7.00862 7.358553,-2.02839 -7.876923,4.5011 -1.421497,0.60922 -3.033921,0.63622 -4.501099,1.12528 -0.79569,0.26523 -1.428107,0.96078 -2.25055,1.12527 -1.103422,0.22069 -2.261859,-0.15914 -3.375824,0 -9.788492,1.39836 0.138757,0.64742 -7.876923,2.25055 -0.735615,0.14712 -1.500366,0 -2.25055,0 -1.875457,0 -3.750915,0 -5.626373,0 -2.25055,0 -4.501099,0 -6.751648,0 -0.750184,0 -1.500367,0 -2.25055,0 -0.375092,0 -0.769432,0.11862 -1.125275,0 -0.795689,-0.26523 -1.552683,-0.66003 -2.250549,-1.12527 -2.79905,-1.86604 -0.129283,-0.25857 -1.125275,-2.25055 -2.341562,-4.68313 0.07768,1.20296 -2.250549,-1.12528 -0.26523,-0.26523 0.265229,-0.86004 0,-1.12527 -0.26523,-0.26523 -0.860045,0.26523 -1.125275,0 -0.26523,-0.26523 0.118614,-0.76943 0,-1.12528 -0.78125,-2.34375 -1.469299,-2.15735 -2.250549,-4.5011 -0.118615,-0.35584 0.167746,-0.78978 0,-1.12527 -0.237229,-0.47446 -0.888047,-0.65082 -1.125275,-1.12527 -0.167746,-0.3355 0.167746,-0.78979 0,-1.12528 -0.237229,-0.47446 -0.888046,-0.65082 -1.125275,-1.12527 -0.17123,-0.34246 0,-2.86905 0,-3.37583 0,-2.62564 0,-5.25128 0,-7.87692 0,-0.75018 0.147123,-1.51494 0,-2.25055 -0.232622,-1.16311 -0.892653,-2.21272 -1.125275,-3.37583 -0.294246,-1.47123 0.363893,-3.04552 0,-4.50109 -0.203422,-0.81369 -0.860045,-1.45486 -1.125274,-2.25055 -0.2363267,-0.70898 0,-5.8926 0,-6.75165 0,-4.12601 0,-8.25202 0,-12.37802 0,-2.62564 0,-5.25129 0,-7.87693 0,-1.50036 -0.2942465,-3.02987 0,-4.5011 -0.2582276,-2.25971 1.760644,-3.66675 2.250549,-5.62637 0.181946,-0.72778 -0.181946,-1.52276 0,-2.25055 0.203422,-0.81369 0.921853,-1.43686 1.125275,-2.25055 0.181946,-0.72778 -0.237229,-1.53886 0,-2.25055 0.167746,-0.50324 0.888046,-0.65082 1.125275,-1.12527 0.167746,-0.33549 -0.118615,-0.76943 0,-1.12528 0.265229,-0.79569 0.860044,-1.45486 1.125274,-2.25055 0.118615,-0.35584 0,-0.75018 0,-1.12527 0,-0.75018 0,-1.50037 0,-2.25055 0,-1.87546 0,-3.75092 0,-5.62637 0,-4.5011 0,-9.0022 0,-13.5033 0,-1.22869 -0.242574,-4.89865 0,-5.62637 0.26523,-0.79569 0.921853,-1.43687 1.125275,-2.25055 0.625153,-2.50061 -0.937729,-2.81319 0,-5.62638 0.118614,-0.35584 0.860045,0.26523 1.125275,0 0.300839,-0.30084 -0.358888,-4.9086 0,-5.62637 0.237228,-0.47446 0.996619,-0.61065 1.125274,-1.12528 2.626954,-10.50781 -1.898394,1.96721 0,-5.62637 0.203422,-0.81369 0.921853,-1.43686 1.125275,-2.25055 0.181946,-0.72778 -0.147123,-1.51493 0,-2.25055 0.232622,-1.16311 0.892653,-2.21271 1.125275,-3.37582 0.147123,-0.73562 -0.237229,-1.53887 0,-2.25055 0.167746,-0.50324 0.831029,-0.68391 1.125275,-1.12528 0.465243,-0.69786 0.66003,-1.55268 1.125274,-2.25055 2.146659,-3.21998 0.210826,1.72349 2.25055,-3.37582 3.108389,-7.77097 -0.41849,0.96717 1.125275,-6.75165 0.164488,-0.82244 0.750183,-1.50037 1.125274,-2.25055 0.750183,-1.50036 1.627556,-2.94361 2.25055,-4.5011 0.440522,-1.1013 0.594815,-2.3149 1.125274,-3.37582 0.237229,-0.47446 0.750184,-0.75018 1.125275,-1.12528 1.143865,-1.14386 1.796382,-1.55915 2.25055,-3.37582 0.181946,-0.72779 0,-1.50037 0,-2.25055 0,-0.75018 0,-1.50037 0,-2.25055 0,-2.25055 0,-4.5011 0,-6.75165 0,-1.12527 0,-2.25055 0,-3.37582 0,-0.75019 -0.181947,-1.52277 0,-2.25055 -0.678235,-2.03668 1.822879,-2.09282 2.250549,-3.37583 0.237229,-0.71168 -0.181946,-1.52276 0,-2.25055 1.358472,-5.43388 0.534752,0.0558 2.250549,-3.37582 0.335493,-0.67098 -0.335492,-1.57956 0,-2.25055 0.237229,-0.47446 0.888046,-0.65082 1.125275,-1.12527 0.126104,-0.25221 0,-4.2337 0,-4.5011 0,-1.05983 -0.213375,-4.98625 0,-5.62638 0.167746,-0.50323 0.888046,-0.65081 1.125275,-1.12527 0.167746,-0.33549 0,-0.75018 0,-1.12528 0,-0.75018 -0.237229,-1.53886 0,-2.25054 0.335492,-1.00648 1.662057,-1.36782 2.250549,-2.25055 0.465244,-0.69787 0.660031,-1.55269 1.125275,-2.25055 0.882738,-1.32411 2.420997,-2.10272 3.375824,-3.37583 0.503238,-0.67098 0.660031,-1.55268 1.125275,-2.25055 0.294246,-0.44137 0.831029,-0.6839 1.125275,-1.12527 0.465244,-0.69787 0.660031,-1.55269 1.125274,-2.25055 1.716647,-2.57497 0.890734,0.70362 2.25055,-3.37583 0.9471,-2.8413 -2.285527,1.17192 1.125275,-3.37582 0.636551,-0.84874 1.613998,-1.40181 2.250549,-2.25055 0.503238,-0.67098 0.750183,-1.50037 1.125275,-2.25055 2.638969,-5.27794 -0.53046,1.32615 2.250549,-5.62637 0.311497,-0.77874 0.660031,-1.55269 1.125275,-2.25055 0.294246,-0.44137 0.957529,-0.62204 1.125275,-1.12528 0.237228,-0.71168 -0.237229,-1.53886 0,-2.25055 -0.420598,-2.45142 1.875458,-0.37509 2.250549,-1.12527 0.335492,-0.67098 -0.237229,-1.53886 0,-2.25055 0.167746,-0.50324 0.957529,-0.62204 1.125275,-1.12527 0.237229,-0.71169 -0.237229,-1.53887 0,-2.25055 0.167746,-0.50324 0.888046,-0.65082 1.125275,-1.12528 0.167746,-0.33549 0,-0.75018 0,-1.12527 0.375091,-0.75019 0.660031,-1.55269 1.125274,-2.25055 1.040317,-1.56048 2.445337,-2.87275 3.375825,-4.5011 0.588492,-1.02986 0.594815,-2.31491 1.125274,-3.37583 0.978119,-1.95623 2.470779,-3.63527 3.375824,-5.62637 0.98166,-2.15965 1.098465,-4.6779 2.25055,-6.75165 0.772842,-1.39111 2.450854,-2.08086 3.375824,-3.37582 0.975004,-1.36501 1.418296,-3.04466 2.250549,-4.5011 2.01299,-3.52273 3.211199,-4.25416 5.626374,-7.87692 0.465244,-0.69787 0.750183,-1.50037 1.125275,-2.25055 0.750183,-0.75019 1.587798,-1.42211 2.250549,-2.25055 0.844845,-1.05606 1.29425,-2.41953 2.25055,-3.37583 0.956299,-0.9563 2.419524,-1.29425 3.375824,-2.25055 0.26523,-0.26523 -0.167746,-0.78978 0,-1.12527 2.951544,-2.95155 0.02145,0.50901 1.125274,-2.25055 -0.796282,-3.84132 3.29147,-4.33238 4.5011,-6.75165 0.69164,-1.38327 0.43364,-3.11783 1.12528,-4.5011 1.37813,-2.75626 2.4602,-1.84515 4.50109,-3.37582 4.45426,-3.34069 0.0719,-1.1972 4.5011,-5.62638 0.61599,-0.61598 5.64947,-2.71451 6.75165,-3.37582 5.96179,-3.57708 1.0834,-0.71529 5.62638,-4.5011 1.44076,-1.20064 2.97497,-2.28574 4.50109,-3.37582 1.10051,-0.78608 2.13277,-1.71781 3.37583,-2.25055 1.42149,-0.60922 3.00073,-0.75019 4.5011,-1.12528 1.87545,-1.12527 3.67013,-2.3977 5.62637,-3.37582 1.06092,-0.53046 2.41062,-0.43584 3.37582,-1.12528 1.72662,-1.23329 2.87106,-3.14273 4.5011,-4.5011 0.64433,-0.53694 1.50037,-0.75018 2.25055,-1.12527 1.50037,-0.75018 3.1361,-1.27555 4.5011,-2.25055 1.29496,-0.92497 2.08087,-2.45085 3.37583,-3.37582 6.43277,-4.59484 2.25984,-1.35219 6.75164,-2.25055 1.16311,-0.23263 2.29192,-0.64354 3.37583,-1.12528 2.29932,-1.02192 4.46099,-2.33462 6.75165,-3.37582 1.83887,-0.83586 3.81969,-1.34721 5.62637,-2.25055 6.96638,-3.48319 -0.73239,-1.58072 9.0022,-4.5011 1.83194,-0.54958 3.81192,-0.52046 5.62637,-1.12528 18.0044,-6.00146 -5.88837,0.55712 7.87693,-3.37582 1.48703,-0.42487 2.96401,-0.95449 4.50109,-1.12527 3.72798,-0.41422 7.52478,0.41422 11.25275,0 1.53708,-0.17079 2.99139,-0.78979 4.5011,-1.12528 1.86705,-0.4149 3.79444,-0.57569 5.62637,-1.12527 1.93475,-0.58043 3.69164,-1.67013 5.62638,-2.25055 2.54201,-0.76261 11.61689,-2.07906 13.50329,-2.25055 1.49421,-0.13584 3.02987,0.29424 4.5011,0 2.32622,-0.46525 4.42543,-1.78531 6.75165,-2.25055 2.18804,-0.43761 5.57949,0.3282 7.87692,0 1.531,-0.21872 2.9756,-0.87103 4.5011,-1.12528 1.5349,-0.25581 3.97851,0 5.62638,0 0.75018,0 1.57956,-0.33549 2.25055,0 0.33549,0.16775 -0.11862,0.76943 0,1.12528 0.26523,0.79569 0.60132,1.59561 1.12527,2.25055 0.99413,1.24266 2.3817,2.13316 3.37583,3.37582 0.45304,0.5663 3.20171,6.0552 3.37582,6.75165 0,7.46413 -0.53046,-1.59138 1.12527,3.37582 0.23723,0.71169 -0.23722,1.53887 0,2.25055 0.16775,0.50324 0.83103,0.68391 1.12528,1.12528 2.47916,0.56668 0.59481,2.3149 1.12527,3.37582 0.23723,0.47446 0.83103,0.68391 1.12528,1.12528 0.93049,1.39573 1.32006,3.10536 2.25055,4.5011 0.29424,0.44137 0.88804,0.65081 1.12527,1.12527 0.16775,0.33549 -0.11861,0.76943 0,1.12528 0.26523,0.79568 0.86005,1.45486 1.12528,2.25055 0.11861,0.35584 -0.16775,0.78978 0,1.12527 2.34156,4.68312 -0.0777,-1.20296 2.25055,1.12527 0.26523,0.26523 0,0.75019 0,1.12528 0,0.37509 0.37509,1.12527 0,1.12527 -0.37509,0 0,-1.50036 0,-1.12527 0,0.75018 0,1.50037 0,2.25055 0,0.37509 0.26523,0.86004 0,1.12527 -0.26523,0.26523 -0.75019,0 -1.12528,0 -0.37509,0 -0.75018,0 -1.12527,0 -2.25055,0 -4.5011,0 -6.75165,0 z"
       id="path3013"
       inkscape:connector-curvature="0" />
    <path
       style="fill:#008000;fill-opacity:1;stroke:#000000;stroke-width:2.25054955;stroke-linecap:round;stroke-linejoin:bevel;stroke-miterlimit:4;stroke-opacity:1;stroke-dasharray:none"
       d=""
       id="path3015"
       inkscape:connector-curvature="0" />
    <path
       style="fill:#008000;stroke:#000000;stroke-width:1px;stroke-linecap:butt;stroke-linejoin:miter;stroke-opacity:1"
       d="m 155.28791,908.32702 c 0.17191,-3.16146 -0.70033,-8.33178 1.12528,-11.25275 1.12457,-1.79931 3.10386,-2.90425 4.5011,-4.5011 1.23499,-1.41142 2.17518,-3.06033 3.37582,-4.5011 0.63109,-0.75731 3.92041,-3.53329 4.5011,-4.5011 4.19151,-6.98584 0.47553,-2.39649 4.5011,-11.25274 3.43098,-7.54816 3.30591,-4.06973 7.87692,-11.25275 8.629,-17.25799 -0.41827,-0.94267 5.62637,-9.0022 0.50324,-0.67098 0.86005,-1.45486 1.12528,-2.25055 0.11861,-0.35584 -0.26523,-0.86004 0,-1.12527 0.26523,-0.26523 0.86004,0.26523 1.12527,0 0.26523,-0.26523 -0.091,-0.76139 0,-1.12528 0.28769,-1.15073 0.59482,-2.3149 1.12528,-3.37582 1.70752,-3.41505 0.90111,-0.22417 1.12527,0 0.26523,0.26523 0.75019,0 1.12528,0 0.37509,0 0.86004,0.26523 1.12527,0 0.26523,-0.26523 0,-0.75018 0,-1.12528 0,-1.87545 0,-3.75091 0,-5.62637 0,-6.00147 0,-12.00293 0,-18.0044 0,-1.50036 0,-3.00073 0,-4.50109 0,-0.75019 -0.14712,-1.51494 0,-2.25055 0.23262,-1.16311 0.79942,-2.23532 1.12528,-3.37583 0.42487,-1.48704 0.51606,-3.0796 1.12527,-4.5011 0.53274,-1.24306 1.77569,-2.10952 2.25055,-3.37582 2.54191,-6.77842 0.2448,-3.96416 1.12528,-10.12747 0.19536,-1.36753 3.3561,-8.95783 3.37582,-9.0022 2.36416,-5.31937 1.71608,-3.4209 4.5011,-7.87692 1.15918,-1.8547 2.68419,-3.55147 3.37582,-5.62638 0.83873,-2.51619 0.34528,-5.34191 1.12528,-7.87692 0.73997,-2.40492 2.63585,-4.34673 3.37582,-6.75165 0.78001,-2.53501 0.68924,-5.26071 1.12528,-7.87692 0.31443,-1.88658 0.6614,-3.77088 1.12527,-5.62638 2.29892,-9.19568 0.0855,5.19905 3.37583,-11.25274 0.22068,-1.10343 -0.13958,-2.25924 0,-3.37583 0.23722,-1.89783 0.81084,-3.7398 1.12527,-5.62637 0.43604,-2.61621 0.482,-5.30382 1.12528,-7.87692 0.4899,-1.95962 1.88921,-3.63903 2.25055,-5.62638 0.40259,-2.21425 -0.20376,-4.51034 0,-6.75165 0.34631,-3.80949 1.82812,-7.45094 2.25054,-11.25274 0.16569,-1.49119 0,-3.00074 0,-4.5011 0.3751,-1.87546 0.88805,-3.72855 1.12528,-5.62638 0.13957,-1.11658 0,-2.25055 0,-3.37582 0,-2.25055 0,-4.5011 0,-6.75165 0,-1.12527 -0.22069,-2.2724 0,-3.37582 0.16449,-0.82245 0.92185,-1.43686 1.12527,-2.25055 0.18195,-0.72779 0,-1.50037 0,-2.25055 0,-2.62564 0,-5.25128 0,-7.87692 0,-0.75019 -0.18194,-1.52277 0,-2.25055 0.42107,-1.68427 2.77078,-4.41627 3.37583,-5.62638 0.53046,-1.06092 0.41359,-2.42691 1.12527,-3.37582 0.50324,-0.67099 1.98532,-0.32959 2.25055,-1.12528 0.59307,-1.77921 -0.15575,-3.75739 0,-5.62637 0.22026,-2.64314 0.88515,-5.23552 1.12528,-7.87692 0.13583,-1.49421 -0.39478,-3.0536 0,-4.5011 0.75162,-2.75596 2.47248,-5.16691 3.37582,-7.87693 0.0997,-0.29899 2.17718,-11.08766 2.25055,-11.25274 0.7617,-1.71382 2.63705,-2.77728 3.37582,-4.5011 0.44327,-1.03429 -0.15913,-2.26186 0,-3.37583 0.53148,-3.72035 0.866,-3.98253 2.25055,-6.75164 0.3751,-0.75019 0.66004,-1.55269 1.12528,-2.25055 0.29425,-0.44137 0.88804,-0.65082 1.12527,-1.12528 0.16775,-0.33549 -0.26523,-0.86004 0,-1.12527 0.26523,-0.26523 0.78979,0.16774 1.12528,0 0.94891,-0.47446 1.30163,-1.7761 2.25055,-2.25055 0.33549,-0.16775 0.75018,0 1.12527,0 0.75019,0 1.52277,0.18194 2.25055,0 0.81369,-0.20342 1.42811,-0.96079 2.25055,-1.12528 1.10342,-0.22068 2.25055,0 3.37583,0 1.50036,0 3.00073,0 4.50109,0 3.37583,0 6.75165,0 10.12748,0 4.126,0 8.25201,0 12.37802,0 0.77703,0 4.15897,-0.17106 4.5011,0 0.47446,0.23723 0.65082,0.88805 1.12527,1.12528 0.33549,0.16774 0.86005,-0.26523 1.12528,0 0.26523,0.26523 -0.16775,0.78978 0,1.12527 0.1077,0.2154 4.2857,4.3934 4.5011,4.5011 0.33549,0.16775 0.86004,-0.26523 1.12527,0 0.26523,0.26523 -0.26523,0.86005 0,1.12528 0.26523,0.26523 0.78978,-0.16775 1.12528,0 0.47445,0.23722 0.65081,0.88804 1.12527,1.12527 0.33549,0.16775 0.78978,-0.16775 1.12528,0 1.35032,0.67517 2.02549,2.70066 3.37582,3.37582 0.33549,0.16775 0.86004,-0.26523 1.12527,0 0.26523,0.26523 -0.26523,0.86005 0,1.12528 0.59308,0.59307 1.55269,0.66003 2.25055,1.12527 0.88274,0.5885 1.36781,1.66206 2.25055,2.25055 0.69787,0.46525 1.55269,0.66003 2.25055,1.12528 1.32411,0.88274 2.13317,2.3817 3.37583,3.37582 1.05605,0.84485 2.31976,1.40571 3.37582,2.25055 4.30224,3.44179 0.40754,1.29357 4.5011,6.75165 1.2731,1.69747 3.12022,2.89008 4.5011,4.5011 0.88014,1.02683 1.29425,2.41952 2.25055,3.37582 1.32615,1.32615 3.17495,2.04968 4.5011,3.37583 0.9563,0.9563 1.38475,2.33687 2.25055,3.37582 1.01877,1.22253 2.42099,2.10272 3.37582,3.37583 0.22506,0.30007 -0.26523,0.86004 0,1.12527 0.0362,0.0362 3.10292,0 3.37582,0 2.25055,0 4.5011,0 6.75165,0 1.12528,0 2.28415,-0.27292 3.37583,0 1.95962,0.48991 3.66675,1.76065 5.62637,2.25055 8.91148,2.22787 5.8059,0.53317 13.5033,1.12527 13.8232,1.06333 4.18791,0.65628 16.87912,3.37583 2.59342,0.55573 5.32667,0.39663 7.87692,1.12527 5.4934,1.56955 10.33381,4.94497 15.75385,6.75165 1.81445,0.60482 3.87862,0.3485 5.62637,1.12528 1.71382,0.76169 2.78729,2.61413 4.5011,3.37582 1.74776,0.77678 3.83555,0.45372 5.62637,1.12528 1.26631,0.47486 2.13277,1.7178 3.37583,2.25055 1.42149,0.60921 3.2143,0.2674 4.5011,1.12527 1.12527,0.75018 1.12527,2.62564 2.25055,3.37582 1.2868,0.85787 3.03392,0.63622 4.5011,1.12528 1.59137,0.53046 2.87372,1.8437 4.50109,2.25055 0.72779,0.18194 1.52277,-0.18195 2.25055,0 0.81369,0.20342 1.43687,0.92185 2.25055,1.12527 1.09168,0.27292 2.25055,0 3.37583,0 1.50036,0 3.01232,0.1861 4.5011,0 4.27835,-0.53479 8.10962,-2.76605 12.37802,-3.37582 1.11396,-0.15914 2.29384,0.30914 3.37582,0 1.61292,-0.46084 2.88818,-1.78972 4.5011,-2.25055 1.08198,-0.30914 2.26186,0.15914 3.37583,0 1.53099,-0.21871 2.9701,-0.90656 4.50109,-1.12528 1.11397,-0.15913 2.26186,0.15914 3.37583,0 1.531,-0.21871 2.9701,-0.90656 4.5011,-1.12527 2.97057,-0.42437 6.02463,0.37219 9.0022,0 1.17698,-0.14712 2.19884,-0.97815 3.37582,-1.12527 8.41074,-1.05135 2.78617,1.32182 10.12747,-1.12528 1.91628,-0.63876 3.65455,-1.81236 5.62638,-2.25055 1.46463,-0.32547 3.00689,0.13584 4.50109,0 2.99431,-0.27221 10.16238,-1.41532 13.5033,-2.25055 3.84193,-0.96048 6.38989,-2.6323 10.12747,-4.5011 0.75019,-0.37509 1.43687,-0.92185 2.25055,-1.12527 0.72779,-0.18195 1.50037,0 2.25055,0 0.75019,-0.37509 1.43686,-0.92185 2.25055,-1.12528 0.72779,-0.18194 1.53887,0.23723 2.25055,0 0.50324,-0.16774 0.65082,-0.88804 1.12528,-1.12527 2.11682,-1.05842 0.44805,2.53443 3.37582,-1.12528 1.0479,-1.30987 1.24407,-3.15913 2.25055,-4.5011 0.22505,-0.30007 0.75018,0 1.12527,0 1.12528,0 2.26186,0.15914 3.37583,0 1.531,-0.21871 3.00073,-0.75018 4.5011,-1.12527 1.87546,0 3.75862,0.1698 5.62637,0 2.27222,-0.20657 4.47943,-0.91871 6.75165,-1.12527 1.86776,-0.1698 3.75092,0 5.62637,0 4.87619,0 9.75238,0 14.62857,0 1.06255,0 4.97075,0 5.62638,0 1.50036,0 3.01581,-0.21219 4.5011,0 1.17422,0.16774 2.25055,0.75018 3.37582,1.12527 1.12528,0.37509 2.31491,0.59482 3.37583,1.12527 1.20963,0.60482 2.21614,1.55474 3.37582,2.25055 0.71921,0.43153 1.50037,0.75019 2.25055,1.12528 0.75018,0.37509 1.42323,0.98739 2.25055,1.12527 1.47995,0.24666 3.02115,-0.24665 4.5011,0 0.82732,0.13789 1.50036,0.75019 2.25055,1.12528 1.50036,0.37509 2.9701,0.90656 4.5011,1.12527 1.8566,0.26523 3.75091,0 5.62637,0 4.12601,0 8.25201,0 12.37802,0 1.12528,0 2.25055,0 3.37583,0 0.75018,0 1.51057,-0.12333 2.25055,0 4.77102,0.79517 9.00337,2.86477 13.50329,4.5011 2.22946,0.81071 4.6779,1.09847 6.75165,2.25055 1.39112,0.77284 1.99412,2.58628 3.37582,3.37583 1.34278,0.7673 3.11783,0.43364 4.5011,1.12527 0.94892,0.47446 1.40182,1.614 2.25055,2.25055 0.67099,0.50324 1.55269,0.66003 2.25055,1.12527 0.55616,0.37078 5.60476,5.58314 5.62638,5.62638 0.33549,0.67098 -0.3355,1.57956 0,2.25055 0.47445,0.94891 1.66205,1.36781 2.25055,2.25055 0.20806,0.31209 -0.26523,0.86004 0,1.12527 0.59307,0.59307 1.55268,0.66003 2.25054,1.12528 0.44137,0.29424 0.65082,0.88804 1.12528,1.12527 0.67098,0.33549 2.01332,-0.71168 2.25055,0 0.35584,1.06753 0,2.25055 0,3.37583 0,3.00073 -0.27167,6.01378 0,9.00219 0.24013,2.64141 0.93631,5.23137 1.12527,7.87693 0.18707,2.61896 -0.32567,5.27155 0,7.87692 0.42894,3.43147 1.61325,6.72853 2.25055,10.12747 4.3031,22.94988 -2.25571,-6.02041 3.37583,14.62857 0.50324,1.84521 0.75018,3.75092 1.12527,5.62638 3.39387,16.96933 -0.92774,-4.17486 2.25055,10.12747 0.4149,1.86705 0.45372,3.83555 1.12528,5.62637 0.47486,1.26631 1.7178,2.13276 2.25055,3.37583 0.60921,1.42149 0.7004,3.01406 1.12527,4.5011 0.91608,3.20627 1.74801,4.35913 2.25055,7.87692 0.15914,1.11396 -0.15914,2.26186 0,3.37582 0.21871,1.531 0.90656,2.9701 1.12527,4.5011 0.15914,1.11397 0,2.25055 0,3.37583 0,1.50036 0,3.00073 0,4.5011 0,0.37509 -0.26523,0.86004 0,1.12527 0.26523,0.26523 0.95753,-0.33549 1.12528,0 0.67098,1.34197 -0.67098,3.15913 0,4.5011 0.83873,1.67746 2.44534,2.87274 3.37582,4.5011 5.89495,10.31616 -6.34994,-6.28116 3.37583,9.0022 1.57281,2.47155 4.23747,4.17225 5.62637,6.75164 0.0524,0.0974 4.37991,15.41453 4.5011,15.75385 0.96078,2.69019 2.3996,5.1923 3.37582,7.87692 0.52852,1.45343 0.70041,3.01406 1.12528,4.5011 0.6118,2.14131 2.07116,6.31133 3.37582,7.87693 0.8658,1.03895 2.31977,1.4057 3.37583,2.25054 3.27377,2.61902 1.57675,2.11716 4.5011,5.62638 1.69796,2.03755 3.96949,3.55528 5.62637,5.62637 0.84484,1.05606 1.55474,2.21614 2.25055,3.37583 0.43152,0.7192 0.5322,1.65747 1.12527,2.25055 5.8487,5.84869 1.17212,-1.06672 5.62638,4.50109 0.84484,1.05606 1.64573,2.16619 2.25055,3.37583 0.53046,1.06092 0.28654,2.53709 1.12527,3.37582 0.83873,0.83873 2.5371,0.28655 3.37583,1.12528 0.83873,0.83873 0.515,2.35871 1.12527,3.37582 3.37582,5.62638 1.12528,0 3.37582,3.37583 0.46525,0.69786 0.53221,1.65747 1.12528,2.25055 0.26523,0.26523 0.75018,0 1.12527,0 0.3751,0.37509 0.83103,0.6839 1.12528,1.12527 0.46524,0.69787 0.86004,1.45486 1.12527,2.25055 0.11862,0.35584 -0.26523,0.86004 0,1.12527 0.26523,0.26523 0.76944,-0.11861 1.12528,0 0.79569,0.26523 1.50036,0.75019 2.25055,1.12528 0.75018,0.37509 1.55268,0.66003 2.25055,1.12527 0.971,0.64734 2.49688,2.49689 3.37582,3.37583 0.37509,0.37509 0.75018,0.75018 1.12528,1.12527 0.37509,0.37509 0.88804,0.65082 1.12527,1.12528 0.16775,0.33549 -0.16774,0.78978 0,1.12527 0.47446,0.94892 1.77609,1.30164 2.25055,2.25055 0.77608,1.55216 -1.36277,1.00653 1.12528,2.25055 1.55215,0.77608 1.00652,-1.36277 2.25054,1.12528 0.3355,0.67098 -0.53045,1.72009 0,2.25055 0.26523,0.26523 0.86005,-0.26523 1.12528,0 0.26523,0.26523 -0.16775,0.78978 0,1.12527 0.23723,0.47446 0.75018,0.75018 1.12527,1.12527 0.3751,0.3751 0.65082,0.88805 1.12528,1.12528 0.33549,0.16775 0.78978,-0.16775 1.12527,0 1.10731,0.55365 3.3938,3.94745 4.5011,4.5011 0.33549,0.16774 0.86005,-0.26523 1.12528,0 0.26523,0.26523 -0.26523,0.86004 0,1.12527 0.26523,0.26523 0.86004,-0.26523 1.12527,0 0.53046,0.53046 -0.33549,1.57957 0,2.25055 0.23723,0.47446 0.88805,0.65082 1.12528,1.12528 0.16774,0.33549 -0.26523,0.86004 0,1.12527 0.26523,0.26523 0.86004,-0.26523 1.12527,0 0.26523,0.26523 -0.26523,0.86005 0,1.12528 0.26523,0.26523 0.86005,-0.26523 1.12528,0 0.26523,0.26523 0,0.75018 0,1.12527 0,0.58843 0.14794,4.20522 0,4.5011 -0.47446,0.94892 -1.7761,1.30163 -2.25055,2.25055 -0.22308,0.44616 0.23004,3.14578 0,3.37582 -0.26523,0.26523 -0.86005,-0.26523 -1.12528,0 -0.26523,0.26523 0.16775,0.78979 0,1.12528 -0.23723,0.47446 -0.88804,0.65082 -1.12527,1.12527 -0.16775,0.3355 0.26523,0.86005 0,1.12528 -0.26523,0.26523 -0.78979,-0.16775 -1.12528,0 -0.47445,0.23723 -0.65081,0.88804 -1.12527,1.12527 -0.67099,0.33549 -1.57957,-0.33549 -2.25055,0 -0.47446,0.23723 -0.65082,0.88805 -1.12528,1.12528 -0.33549,0.16774 -0.78978,-0.16775 -1.12527,0 -0.47446,0.23723 -0.62204,0.95753 -1.12528,1.12527 -0.71168,0.23723 -1.52276,-0.18194 -2.25055,0 -0.81368,0.20342 -1.45486,0.86005 -2.25054,1.12528 -0.71169,0.23723 -1.72009,-0.53046 -2.25055,0 -0.26523,0.26523 0.16774,0.78978 0,1.12527 -0.23723,0.47446 -0.75019,0.75018 -1.12528,1.12528 -0.37509,0.37509 -0.65082,0.88804 -1.12527,1.12527 -0.3355,0.16775 -0.78979,-0.16774 -1.12528,0 -0.47446,0.23723 -0.65082,0.88805 -1.12527,1.12528 -0.3355,0.16774 -0.76943,-0.11862 -1.12528,0 -0.79569,0.26523 -1.45486,0.86004 -2.25055,1.12527 -0.35584,0.11862 -0.78978,-0.16775 -1.12527,0 -0.47446,0.23723 -0.65082,0.88805 -1.12528,1.12528 -0.33549,0.16774 -0.75018,0 -1.12527,0 -0.37509,0.37509 -0.65082,0.88804 -1.12528,1.12527 -0.33549,0.16775 -0.86004,-0.26523 -1.12527,0 -0.26523,0.26523 0.26523,0.86005 0,1.12527 -0.26523,0.26523 -0.78978,-0.16774 -1.12528,0 -0.94891,0.47446 -1.30163,1.7761 -2.25055,2.25055 -0.33549,0.16775 -0.78978,-0.16774 -1.12527,0 -5.14994,2.57497 4.77501,-0.46639 -3.37582,2.25055 -0.35585,0.11862 -0.78979,-0.16774 -1.12528,0 -0.47446,0.23723 -0.65082,0.88805 -1.12527,1.12528 -3.31147,1.65573 1.48151,-2.60679 -2.25055,1.12527 -0.37509,0.37509 -0.75019,0.75019 -1.12528,1.12528 -0.37509,0.37509 -0.88804,0.65082 -1.12527,1.12527 -0.16775,0.33549 0.16774,0.78979 0,1.12528 -0.23723,0.47445 -0.75019,0.75018 -1.12528,1.12527 -0.37509,0.37509 -0.65081,0.88805 -1.12527,1.12528 -0.33549,0.16774 -0.78978,-0.16775 -1.12528,0 -1.35033,0.67516 -2.02549,2.70066 -3.37582,3.37582 -1.23736,0.61868 -2.27134,-1.08369 -3.37582,1.12528 -0.16775,0.33549 0,0.75018 0,1.12527 -0.3751,0.37509 -0.88805,0.65082 -1.12528,1.12528 -0.16775,0.33549 0.26523,0.86004 0,1.12527 -0.26523,0.26523 -0.86004,-0.26523 -1.12527,0 -0.26523,0.26523 0.26523,0.86004 0,1.12527 -0.26523,0.26523 -0.78979,-0.16774 -1.12528,0 -0.94891,0.47446 -1.30163,1.7761 -2.25055,2.25055 -0.33549,0.16775 -0.86004,-0.26523 -1.12527,0 -0.26523,0.26523 0.33549,0.95753 0,1.12528 -0.67099,0.33549 -1.57957,-0.33549 -2.25055,0 -0.33549,0.16774 0.26523,0.86004 0,1.12527 -0.26523,0.26523 -0.78979,-0.16774 -1.12528,0 -0.47445,0.23723 -0.65081,0.88805 -1.12527,1.12528 -0.67099,0.33549 -1.72009,-0.53046 -2.25055,0 -0.26523,0.26523 0.26523,0.86004 0,1.12527 -0.26523,0.26523 -0.86005,-0.26523 -1.12528,0 -2.32823,2.32824 3.55785,-0.091 -1.12527,2.25055 -0.33549,0.16775 -0.86005,-0.26523 -1.12528,0 -0.26523,0.26523 0.26523,0.86005 0,1.12528 -0.59307,0.59307 -1.65747,0.5322 -2.25055,1.12527 -0.26522,0.26523 0.26523,0.86005 0,1.12528 -0.26522,0.26523 -0.86004,-0.26523 -1.12527,0 -1.3625,2.725 -0.5322,1.65747 -2.25055,3.37582 -0.37509,0.37509 -0.75018,0.75018 -1.12527,1.12528 -0.75019,0.37509 -1.65748,0.5322 -2.25055,1.12527 -0.26523,0.26523 0.16774,0.78978 0,1.12527 -0.23723,0.47446 -0.75019,0.75019 -1.12528,1.12528 -0.37509,0.37509 -0.65082,0.88805 -1.12527,1.12527 -0.3355,0.16775 -0.76943,-0.11861 -1.12528,0 -0.79569,0.26523 -1.45486,0.86005 -2.25055,1.12528 -0.35584,0.11861 -0.86004,-0.26523 -1.12527,0 -2.32824,2.32823 3.55785,-0.091 -1.12528,2.25055 -0.33549,0.16774 -0.78978,-0.16775 -1.12527,0 -0.47446,0.23723 -0.65082,0.88804 -1.12528,1.12527 -0.33549,0.16775 -0.86004,-0.26523 -1.12527,0 -0.26523,0.26523 0.33549,0.95753 0,1.12528 -0.67098,0.33549 -1.53886,-0.23723 -2.25055,0 -0.50324,0.16774 -0.65082,0.88804 -1.12527,1.12527 -0.3355,0.16775 -0.75019,0 -1.12528,0 -0.75018,0 -1.50037,0 -2.25055,0 -2.25055,0 -4.5011,0 -6.75165,0 -1.12527,0 -2.26586,-0.18499 -3.37582,0 -1.17001,0.195 -2.21272,0.89266 -3.37583,1.12528 -1.83903,0.36781 -3.76976,-0.26523 -5.62637,0 -1.531,0.21871 -2.9701,0.90656 -4.5011,1.12527 -1.11396,0.15914 -2.26586,-0.18499 -3.37582,0 -3.35321,0.55887 -4.59745,2.14602 -7.87693,3.37583 -17.07228,6.40215 5.72518,-3.19029 -7.87692,2.25055 -1.55748,0.62299 -2.90972,1.7201 -4.5011,2.2505 -2.35748,0.7859 -4.72165,0.7281 -6.75165,2.2506 -0.84873,0.6365 -1.42211,1.5878 -2.25055,2.2505 -0.55004,0.4401 -4.35146,3.0571 -5.62637,3.3759 -7.46413,0 1.59138,-0.5305 -3.37582,1.1252 -1.36135,0.4538 -5.21887,-0.3832 -6.75165,0 -0.81369,0.2035 -1.43686,0.9219 -2.25055,1.1253 -0.72779,0.182 -1.53886,-0.2372 -2.25055,0 -0.50324,0.1678 -0.62204,0.9575 -1.12528,1.1253 -0.71168,0.2372 -1.53886,-0.2372 -2.25054,0 -0.50324,0.1677 -0.62204,0.9575 -1.12528,1.1253 -1.35394,0.4513 -3.14716,-0.4513 -4.5011,0 -0.50324,0.1677 -0.62203,0.9575 -1.12527,1.1252 -1.42338,0.4745 -3.04553,-0.3639 -4.5011,0 -0.81369,0.2035 -1.45486,0.8601 -2.25055,1.1253 -1.01275,0.3376 -2.36308,-0.3376 -3.37583,0 -0.50323,0.1678 -0.62203,0.9575 -1.12527,1.1253 -1.06753,0.3558 -2.3083,-0.3559 -3.37582,0 -0.75019,0.3751 -1.50037,0.7502 -2.25055,1.1253 -0.3751,0 -0.76944,-0.1186 -1.12528,0 -0.79569,0.2652 -1.45486,0.86 -2.25055,1.1252 -0.94312,0.3144 -3.75535,-0.3728 -4.5011,0 -0.47445,0.2373 -0.65081,0.8881 -1.12527,1.1253 -0.34246,0.1712 -2.86905,0 -3.37583,0 -2.62564,0 -5.25128,0 -7.87692,0 -0.75018,0 -1.50037,0 -2.25055,0 -0.37509,0 -0.76943,-0.1186 -1.12527,0 -0.79569,0.2652 -1.43686,0.9219 -2.25055,1.1253 -0.72779,0.1819 -1.50037,0 -2.25055,0 -1.87546,0 -3.75092,0 -5.62638,0 -5.25128,0 -10.50256,0 -15.75384,0 -2.62564,0 -5.25128,0 -7.87692,0 -0.75019,0 -1.53887,0.2372 -2.25055,0 -5.90853,-1.9695 -7.97516,-6.3536 -12.37803,-10.1275 -2.42664,-2.08 -6.01544,-3.9594 -7.87692,-6.7516 -1.39573,-2.0936 -2.02494,-4.62887 -3.37582,-6.75168 -5.02623,-7.89835 -4.5236,-3.15637 -7.87693,-12.37802 -0.65361,-1.79745 -0.41495,-3.85057 -1.12527,-5.62637 -0.81229,-2.03071 -2.39771,-3.67014 -3.37583,-5.62638 -0.90334,-1.80668 -1.43017,-3.78054 -2.25054,-5.62637 -0.68129,-1.53288 -1.76854,-2.89438 -2.25055,-4.5011 -0.65562,-2.18537 -0.10492,-4.71093 -1.12528,-6.75165 -0.33549,-0.67098 -1.50037,0 -2.25055,0 -0.75018,0 -1.50036,0 -2.25055,0 -3.00073,0 -6.00146,0 -9.0022,0 -1.50036,0 -3.07772,0.47446 -4.50109,0 -2.07491,-0.69163 -3.53148,-2.74735 -5.62638,-3.37582 -1.79636,-0.53891 -3.80691,0.45486 -5.62637,0 -1.31203,-0.32801 -2.07545,-1.87902 -3.37583,-2.25055 -1.44263,-0.41218 -3.01581,0.21218 -4.5011,0 -1.17422,-0.16775 -2.21271,-0.89266 -3.37582,-1.12528 -0.73561,-0.14712 -1.52276,0.18195 -2.25055,0 -0.81369,-0.20342 -1.42323,-0.98739 -2.25055,-1.12527 -1.47995,-0.24666 -3.05846,0.41218 -4.5011,0 -1.30037,-0.37154 -2.12014,-1.74828 -3.37582,-2.25055 -0.69653,-0.27861 -1.50037,0 -2.25055,0 -1.50037,0 -3.02115,0.24666 -4.5011,0 -0.82732,-0.13789 -1.42811,-0.96079 -2.25055,-1.12528 -1.83904,-0.3678 -3.78733,0.36781 -5.62637,0 -1.16311,-0.23262 -2.20582,-0.93027 -3.37583,-1.12527 -1.10996,-0.185 -2.25055,0 -3.37582,0 -1.12528,0 -2.25055,0 -3.37583,0 -0.72822,0 -10.0611,0 -10.12747,0 -3.02051,0 -5.98169,0 -9.0022,0 -1.87545,0 -3.78733,-0.36781 -5.62637,0 -1.9807,0.39614 -3.75091,1.50037 -5.62637,2.25055 -9.59877,3.8395 -1.79189,0.37034 -11.25275,5.62637 -13.60191,6.80096 3.25671,-1.86097 -7.87692,4.5011 -1.45645,0.83225 -3.06269,1.3875 -4.5011,2.25055 -0.45487,0.27292 -0.75019,0.75018 -1.12528,1.12528 -0.37509,0.37509 -0.88804,0.65081 -1.12527,1.12527 -0.16775,0.33549 0.26523,0.86004 0,1.12527 -0.26523,0.26523 -0.76943,-0.11861 -1.12528,0 -0.79569,0.26523 -1.45486,0.86005 -2.25055,1.12528 -0.35584,0.11861 -0.86004,-0.26523 -1.12527,0 -0.26523,0.26523 0.33549,0.95753 0,1.12527 -2.25055,1.12528 -1.68791,-0.56263 -3.37582,0 -0.79569,0.26523 -1.45486,0.86005 -2.25055,1.12528 -0.74426,0.24808 -5.64622,0 -6.75165,0 -0.37509,0 -0.78978,-0.16775 -1.12528,0 -0.47445,0.23723 -0.65081,0.88804 -1.12527,1.12527 -0.67099,0.3355 -1.53886,-0.23723 -2.25055,0 -0.79569,0.26523 -1.50037,0.75019 -2.25055,1.12528 -0.75018,0.37509 -1.57957,0.62203 -2.25055,1.12527 -0.84874,0.63655 -1.30163,1.77609 -2.25055,2.25055 -6.65474,3.32737 2.40674,-4.0556 -4.5011,1.12528 -0.84873,0.63655 -1.26551,1.85653 -2.25055,2.25055 -5.90993,2.36397 -1.10569,-2.26524 -5.62637,1.12527 -6.89066,6.89066 1.89783,-1.42337 -4.5011,3.37583 -0.84874,0.63655 -1.34082,1.70471 -2.25055,2.25054 -4.85457,2.91274 -1.70455,0.14482 -5.62637,1.12528 -0.81369,0.20342 -1.45486,0.86004 -2.25055,1.12527 -0.35585,0.11862 -0.76943,-0.11861 -1.12528,0 -0.79569,0.26523 -1.43686,0.92186 -2.25055,1.12528 -0.72778,0.18195 -1.53886,-0.23723 -2.25055,0 -0.50323,0.16775 -0.62203,0.95753 -1.12527,1.12527 -1.42337,0.47446 -3.02987,-0.29424 -4.5011,0 -1.16311,0.23263 -2.21271,0.89266 -3.37582,1.12528 -1.78146,0.35629 -5.06712,-0.42114 -6.75165,0 -6.51405,1.62851 2.95794,1.12527 -5.62638,1.12527 -2.62564,0 -5.25128,0 -7.87692,0 -0.37509,0 -0.75018,0 -1.12527,0 -0.3751,0 -0.86005,-0.26523 -1.12528,0 -0.59307,0.59308 -0.66003,1.55269 -1.12527,2.25055 -0.68632,1.02948 -2.2826,1.97725 -3.37583,2.25055 -0.85573,0.21394 -4.68408,0 -5.62637,0 -3.75092,0 -7.50183,0 -11.25275,0 -2.25055,0 -4.5011,0 -6.75165,0 -0.2674,0 -4.24889,0.12611 -4.5011,0 -0.47445,-0.23723 -0.65081,-0.88804 -1.12527,-1.12527 -0.33549,-0.16775 -0.86005,0.26523 -1.12528,0 -0.26523,-0.26523 0.26523,-0.86005 0,-1.12528 -0.59307,-0.59307 -1.65747,-0.5322 -2.25054,-1.12527 -0.26523,-0.26523 0.26522,-0.86005 0,-1.12528 -0.53046,-0.53046 -1.57957,0.3355 -2.25055,0 -0.47446,-0.23723 -0.65082,-0.88804 -1.12528,-1.12527 -0.67098,-0.33549 -1.57956,0.33549 -2.25055,0 -1.555,-0.7775 -0.69555,-1.47305 -2.25055,-2.25055 -0.33549,-0.16775 -0.78978,0.16775 -1.12527,0 -0.47446,-0.23723 -0.65082,-0.88805 -1.12528,-1.12528 -0.60351,-0.30175 -1.64703,0.30176 -2.25055,0 -0.94891,-0.47445 -1.30163,-1.77609 -2.25055,-2.25055 -0.67098,-0.33549 -1.72009,0.53046 -2.25055,0 -0.26523,-0.26522 0.26523,-0.86004 0,-1.12527 -0.53046,-0.53046 -1.57956,0.33549 -2.25055,0 -0.47445,-0.23723 -0.65081,-0.88805 -1.12527,-1.12527 -0.33549,-0.16775 -0.86004,0.26523 -1.12527,0 -0.26523,-0.26523 0.26523,-0.86005 0,-1.12528 -0.53046,-0.53046 -1.72009,0.53046 -2.25055,0 -0.26523,-0.26523 0.26523,-0.86004 0,-1.12527 -0.26523,-0.26523 -0.78979,0.16774 -1.12528,0 -0.94891,-0.47446 -1.30163,-1.7761 -2.25055,-2.25055 -0.33549,-0.16775 -0.78978,0.16774 -1.12527,0 -1.555,-0.7775 -0.69555,-1.47305 -2.25055,-2.25055 -0.44616,-0.22308 -3.14578,0.23004 -3.37583,0 -0.26523,-0.26523 0,-0.75019 0,-1.12528 0,-0.37509 -0.37509,-1.12527 0,-1.12527 0.37509,0 0.37509,1.12527 0,1.12527 -0.53046,0 -0.6839,-0.83103 -1.12527,-1.12527 -0.56668,-2.47917 -2.31491,-0.59482 -3.37583,-1.12528 -0.47445,-0.23723 -0.75018,-0.75018 -1.12527,-1.12527 -0.37509,-0.37509 -0.83103,-0.68391 -1.12527,-1.12528 -0.46525,-0.69786 -0.53221,-1.65747 -1.12528,-2.25055 -4.39165,-4.39164 -0.60433,0.26048 -3.37582,-1.12527 -4.68313,-2.34156 1.20295,0.0777 -1.12528,-2.25055 -0.53046,-0.53046 -1.72009,0.53046 -2.25055,0 -0.26523,-0.26523 0.26523,-0.86005 0,-1.12527 -0.59307,-0.59308 -1.55268,-0.66004 -2.25055,-1.12528 -1.02435,-0.6829 -2.37845,-2.87714 -3.37582,-3.37582 -0.33549,-0.16775 -0.86005,0.26523 -1.12528,0 -0.26523,-0.26523 0.26523,-0.86005 0,-1.12528 -0.26523,-0.26523 -0.86004,0.26523 -1.12527,0 -0.59307,-0.59307 -0.66003,-1.55268 -1.12528,-2.25055 -2.25055,-3.37582 0,2.25055 -3.37582,-3.37582 -0.61027,-1.01711 -0.3843,-2.4496 -1.12527,-3.37583 -0.84485,-1.05605 -2.41953,-1.29425 -3.37583,-2.25055 -0.59307,-0.59307 -0.62204,-1.57956 -1.12527,-2.25055 -0.63656,-0.84873 -1.70471,-1.34081 -2.25055,-2.25054 -0.61027,-1.01711 -0.46732,-2.3889 -1.12528,-3.37583 -0.20806,-0.31209 -0.75018,0 -1.12527,0 -0.37509,-0.37509 -0.88805,-0.65082 -1.12528,-1.12527 -0.16774,-0.3355 0.26523,-0.86005 0,-1.12528 -0.24058,-0.24058 -3.8807,0.2068 -4.5011,0 -0.79569,-0.26523 -1.45486,-0.86004 -2.25055,-1.12527 -0.35584,-0.11862 -0.86004,0.26523 -1.12527,0 -0.26523,-0.26523 0.26523,-0.86005 0,-1.12528 -0.26523,-0.26523 -0.78978,0.16775 -1.12528,0 -0.47445,-0.23723 -0.65081,-0.88804 -1.12527,-1.12527 -0.33549,-0.16775 -0.78978,0.16774 -1.12527,0 -0.47446,-0.23723 -0.65082,-0.88805 -1.12528,-1.12528 -0.33549,-0.16774 -0.78978,0.16775 -1.12527,0 -0.47446,-0.23723 -0.65082,-0.88804 -1.12528,-1.12527 -0.33549,-0.16775 -0.78978,0.16774 -1.12527,0 -0.47446,-0.23723 -0.65082,-0.88805 -1.12528,-1.12528 -0.33549,-0.16774 -0.78978,0.16775 -1.12527,0 -2.07165,-1.03582 -0.1789,-2.34 -2.25055,-3.37582 -0.33549,-0.16775 -0.78978,0.16775 -1.12528,0 -1.35033,-0.67517 -2.02549,-2.70066 -3.37582,-3.37582 -0.33549,-0.16775 -0.78978,0.16774 -1.12528,0 -0.47445,-0.23723 -0.65081,-0.88805 -1.12527,-1.12528 -0.33549,-0.16775 -0.78978,0.16775 -1.12528,0 -0.47445,-0.23723 -0.65081,-0.88805 -1.12527,-1.12527 -0.33549,-0.16775 -0.86005,0.26523 -1.12527,0 -0.26523,-0.26523 0.26522,-0.86005 0,-1.12528 -0.26523,-0.26523 -0.86005,0.26523 -1.12528,0 -0.53046,-0.53046 0.53046,-1.72009 0,-2.25055 -0.26523,-0.26523 -0.86004,0.26523 -1.12527,0 -0.26523,-0.26523 0,-0.75018 0,-1.12527 -1.87546,-1.50037 -3.75092,-3.00074 -5.62638,-4.5011 z"
       id="path3017"
       inkscape:connector-curvature="0" />
    <path
       style="fill:#008000;stroke:#000000;stroke-width:1px;stroke-linecap:butt;stroke-linejoin:miter;stroke-opacity:1"
       d="m 697.67033,291.67647 c -3.90708,-1.44453 -7.18587,-1.12528 -11.25275,-1.12528 -1.78273,0 -3.04033,-0.33549 -4.5011,1.12528 -0.59307,0.59307 -0.66003,1.55268 -1.12527,2.25055 -0.58849,0.88274 -1.77609,1.30163 -2.25055,2.25055 -0.53046,1.06092 -0.51501,2.35871 -1.12528,3.37582 -0.54583,0.90973 -1.72418,1.32942 -2.25054,2.25055 -3.24972,5.687 -1.58092,5.26971 -3.37583,11.25275 -0.58042,1.93474 -1.52544,3.74108 -2.25055,5.62637 -1.15045,2.99117 -2.1856,6.02663 -3.37582,9.0022 -0.3227,0.80673 -5.03644,11.53683 -5.62638,13.5033 -1.65228,5.5076 -1.12527,11.21599 -1.12527,16.87912 0,2.62564 0,5.25128 0,7.87692 0,0.75018 -0.23723,1.53886 0,2.25055 0.53046,1.59138 1.27554,3.13609 2.25055,4.5011 0.92497,1.29496 2.25055,2.25055 3.37582,3.37582 1.50037,1.50037 3.1756,2.84422 4.5011,4.5011 1.68969,2.11211 2.70411,4.73004 4.5011,6.75165 1.24599,1.40173 3.0207,2.2244 4.5011,3.37582 1.89583,1.47454 3.65167,3.134 5.62637,4.5011 3.42131,2.3686 15.57343,9.69689 19.12967,11.25275 2.50176,1.09452 5.27297,1.42825 7.87693,2.25055 4.52434,1.42874 9.13053,2.65993 13.50329,4.5011 8.47695,4.84397 6.87344,4.32476 15.75385,7.87692 2.97557,1.19023 6.09238,2.03284 9.0022,3.37583 1.98583,0.91654 3.67013,2.3977 5.62637,3.37582 1.79868,0.89934 6.19441,1.76983 7.87692,2.25055 3.74588,1.07025 3.65558,1.54699 7.87693,2.25055 0.73997,0.12333 1.50036,0 2.25055,0 2.26096,0 4.49068,0 6.75164,0 2.25055,0 4.5011,0 6.75165,0 0.37509,0 0.86005,0.26523 1.12528,0 0.26523,-0.26523 -0.26523,-0.86005 0,-1.12528 0.9563,-0.9563 2.29389,-1.4391 3.37582,-2.25055 0.234,-0.17549 2.15671,-2.21926 2.25055,-2.25054 0.71169,-0.23723 1.52277,0.18194 2.25055,0 0.81369,-0.20343 1.43686,-0.92186 2.25055,-1.12528 0.76152,-0.19038 7.1528,0 7.87692,0 5.62638,0 11.25275,0 16.87912,0 2.62565,0 5.25129,0 7.87693,0 2.73161,0 5.36709,-0.38062 7.87692,1.12528 1.58112,0.94867 3.73447,4.24643 4.5011,5.62637 1.6989,3.05802 3.6207,6.60589 4.5011,10.12747 0.46387,1.8555 0.34849,3.87862 1.12527,5.62638 0.7617,1.71381 2.63705,2.77728 3.37583,4.50109 0.44326,1.03429 -0.15914,2.26186 0,3.37583 0.21871,1.531 0.7004,3.01406 1.12527,4.5011 0.64674,2.26358 2.02915,5.85691 3.37583,7.87692 0.29424,0.44137 0.95752,0.62204 1.12527,1.12527 0.23723,0.71169 -0.53046,1.72009 0,2.25055 0.53046,0.53046 1.53886,-0.23722 2.25055,0 0.50324,0.16775 0.62204,0.95753 1.12527,1.12528 7.46414,0 -1.59137,-0.53046 3.37583,1.12527 0.71169,0.23723 1.50037,0 2.25055,0 2.25055,0 4.5011,0 6.75165,0 3.37582,0 6.75165,0 10.12747,0 1.12527,0 2.26586,0.185 3.37582,0 2.08576,-0.34762 3.78976,-1.33224 5.62638,-2.25055 0.75018,-0.37509 1.65747,-0.5322 2.25055,-1.12527 0.9563,-0.9563 1.29425,-2.41952 2.25055,-3.37582 0.59307,-0.59308 1.53134,-0.69376 2.25055,-1.12528 1.15968,-0.69581 2.41952,-1.29425 3.37582,-2.25055 0.59307,-0.59307 0.5322,-1.65748 1.12527,-2.25055 0.59308,-0.59307 1.50037,-0.75018 2.25055,-1.12527 0.75019,-1.12528 1.29425,-2.41953 2.25055,-3.37583 0.26523,-0.26523 0.86005,0.26523 1.12528,0 0.9563,-0.9563 1.4057,-2.31976 2.25055,-3.37582 1.3255,-1.65688 3.32411,-2.73562 4.5011,-4.5011 0.20806,-0.3121 -0.16775,-0.78978 0,-1.12527 0.23723,-0.47446 0.88804,-0.65082 1.12527,-1.12528 0.16775,-0.33549 -0.2929,-0.89096 0,-1.12527 2.11519,-1.69216 5.29242,-3.20885 7.87692,-4.5011 0.75019,-0.37509 1.55269,-0.66003 2.25055,-1.12528 0.44137,-0.29424 0.75019,-0.75018 1.12528,-1.12527 1.28748,-1.28749 1.33207,-1.5693 3.37582,-2.25055 0.71169,-0.23723 1.50037,0 2.25055,0 0.75019,0 1.52277,-0.18195 2.25055,0 0.81369,0.20342 1.45486,0.86004 2.25055,1.12527 0.35584,0.11862 0.76943,-0.11861 1.12528,0 0.79568,0.26523 1.43686,0.92186 2.25055,1.12528 0.72778,0.18194 1.53886,-0.23723 2.25054,0 0.50324,0.16774 0.65082,0.88804 1.12528,1.12527 0.67098,0.33549 1.57956,-0.33549 2.25055,0 0.47446,0.23723 0.65082,0.88805 1.12527,1.12528 0.67099,0.33549 1.57957,-0.3355 2.25055,0 0.47446,0.23723 0.65082,0.88804 1.12528,1.12527 0.33549,0.16775 0.75018,0 1.12527,0 0.37509,0.37509 0.65082,0.88805 1.12528,1.12528 0.70726,0.35363 3.79384,-0.35363 4.5011,0 0.47445,0.23722 0.65081,0.88804 1.12527,1.12527 0.50072,0.25036 3.98641,-0.17156 4.5011,0 0.50324,0.16775 0.62204,0.95753 1.12527,1.12528 0.6223,0.20743 5.61844,0 6.75165,0 0.47336,0 6.41691,0.16737 6.75165,0 0.47446,-0.23723 0.65082,-0.88805 1.12528,-1.12528 0.67098,-0.33549 1.57956,0.33549 2.25055,0 0.47445,-0.23723 0.65081,-0.88805 1.12527,-1.12527 1.55216,-0.77608 1.00653,1.36277 2.25055,-1.12528 0.048,-0.0959 0.048,-4.40517 0,-4.5011 -1.39051,-2.78101 -1.12528,0.38842 -1.12528,-2.25055 0,-2.25055 0,-4.5011 0,-6.75165 0,-0.50677 0.17123,-3.03336 0,-3.37582 -0.23722,-0.47446 -0.88804,-0.65082 -1.12527,-1.12527 -0.77608,-1.55216 1.36277,-1.00653 -1.12527,-2.25055 -0.3355,-0.16775 -0.86005,0.26523 -1.12528,0 -0.53046,-0.53046 0.33549,-1.57957 0,-2.25055 -0.64502,-1.29004 -2.3479,-1.56527 -3.37582,-2.25055 -1.43255,-0.95503 -3.11454,-3.46118 -4.5011,-4.5011 -0.67099,-0.50324 -1.47181,-0.81378 -2.25055,-1.12528 -1.10131,-0.44052 -2.4496,-0.38429 -3.37583,-1.12527 -0.0477,-0.0381 -4.30737,-6.49335 -4.5011,-6.75165 -1.44105,-1.92141 -3.13399,-3.65167 -4.50109,-5.62637 -6.06953,-8.7671 -4.86173,-8.32229 -10.12748,-16.87912 -1.41759,-2.30359 -2.7883,-4.65823 -4.5011,-6.75165 -3.35907,-4.10553 -7.70416,-7.30987 -11.25274,-11.25275 -1.60669,-1.78521 -2.71589,-4.01968 -4.5011,-5.62637 -2.01048,-1.80943 -4.73004,-2.70411 -6.75165,-4.5011 -1.40173,-1.24599 -2.17519,-3.06033 -3.37582,-4.5011 -0.67919,-0.81502 -1.66206,-1.36781 -2.25055,-2.25055 -0.20807,-0.3121 0,-0.75018 0,-1.12527 0,-0.75019 0.18194,-1.52277 0,-2.25055 -2.3076,-9.23039 -0.0171,8.88269 -2.25055,-6.75165 -0.15914,-1.11397 0.15913,-2.26186 0,-3.37583 -1.66256,-11.63788 -0.73119,3.54675 -2.25055,-10.12747 -0.62531,-5.62778 1.09136,-4.03172 -1.12528,-10.12747 -0.85989,-2.3647 -2.3539,-4.45233 -3.37582,-6.75165 -0.48174,-1.08391 -0.79942,-2.23532 -1.12528,-3.37582 -0.42486,-1.48704 -0.2674,-3.2143 -1.12527,-4.5011 -0.75018,-1.12528 -2.53098,-1.1945 -3.37583,-2.25055 -0.74097,-0.92623 -0.65802,-2.28559 -1.12527,-3.37583 -0.66078,-1.54183 -1.3615,-3.07861 -2.25055,-4.5011 -0.99399,-1.59038 -2.44534,-2.87274 -3.37582,-4.50109 -3.65991,-6.40484 1.00989,-0.73572 -2.25055,-5.62638 -1.12528,-1.68791 -2.25055,-1.12527 -3.37583,-3.37582 -0.33549,-0.67099 0.23723,-1.53887 0,-2.25055 -0.16774,-0.50324 -0.88804,-0.65082 -1.12527,-1.12528 -0.33197,-0.66393 0.258,-2.60182 0,-3.37582 -0.26523,-0.79569 -0.75018,-1.50037 -1.12528,-2.25055 -0.75018,-1.50037 -1.50036,-3.00073 -2.25055,-4.5011 -0.75018,-1.50037 -1.32006,-3.10537 -2.25055,-4.5011 -0.58849,-0.88274 -1.66205,-1.36781 -2.25054,-2.25055 -0.93049,-1.39573 -1.50037,-3.00073 -2.25055,-4.5011 -0.3751,-0.75018 -0.81378,-1.4718 -1.12528,-2.25055 -0.88104,-2.20261 -1.50037,-4.50109 -2.25055,-6.75164 -0.37509,-1.12528 -0.89265,-2.21272 -1.12527,-3.37583 -0.14713,-0.73561 0.33549,-1.57956 0,-2.25055 -0.47446,-0.94891 -1.66206,-1.36781 -2.25055,-2.25055 -0.41613,-0.62419 0.33549,-1.57956 0,-2.25055 -0.23723,-0.47445 -0.88805,-0.65081 -1.12528,-1.12527 -0.16774,-0.33549 0.16775,-0.78978 0,-1.12528 -0.23723,-0.47445 -0.88804,-0.65081 -1.12527,-1.12527 -0.16775,-0.33549 0.26523,-0.86005 0,-1.12528 -0.26523,-0.26523 -0.86005,0.26523 -1.12528,0 -0.26523,-0.26523 0,-0.75018 0,-1.12527 0,-2.25055 0,-4.5011 0,-6.75165 0,-0.37509 0,-0.75018 0,-1.12527 0,-0.3751 0.16775,-0.78979 0,-1.12528 -1.10448,-2.20896 -2.13846,-0.50659 -3.37582,-1.12527 -0.47446,-0.23723 -0.65082,-0.88805 -1.12528,-1.12528 -0.44616,-0.22308 -3.14577,0.23005 -3.37582,0 -0.3079,-0.3079 0.30522,-3.89065 0,-4.5011 -0.23723,-0.47445 -0.88805,-0.65081 -1.12527,-1.12527 -0.16775,-0.33549 0,-0.75018 0,-1.12528 0,-0.37509 0,-0.75018 0,-1.12527 0,-0.37509 0,-0.75018 0,-1.12528 0,-0.37509 0.26523,-0.86004 0,-1.12527 -0.26523,-0.26523 -0.86005,0.26523 -1.12528,0 -0.26523,-0.26523 0.26523,-0.86005 0,-1.12527 -0.26523,-0.26523 -0.75018,0 -1.12527,0 -1.05983,0 -4.98625,0.21337 -5.62638,0 -0.50324,-0.16775 -0.65081,-0.88805 -1.12527,-1.12528 -0.33549,-0.16775 -0.78979,0.16775 -1.12528,0 -0.47445,-0.23723 -0.6839,-0.83103 -1.12527,-1.12527 -0.69787,-0.46525 -1.65748,-0.53221 -2.25055,-1.12528 -0.26523,-0.26523 0.26523,-0.86004 0,-1.12527 -0.59307,-0.59308 -1.55269,-0.66003 -2.25055,-1.12528 -1.65581,-1.10387 -2.84529,-3.39722 -4.5011,-4.5011 -0.69787,-0.46524 -1.53134,-0.69375 -2.25055,-1.12527 -1.15968,-0.69581 -2.21614,-1.55474 -3.37582,-2.25055 -1.43841,-0.86305 -3.15913,-1.24407 -4.5011,-2.25055 -0.84874,-0.63655 -1.40182,-1.614 -2.25055,-2.25055 -0.67099,-0.50324 -1.65748,-0.5322 -2.25055,-1.12528 -0.9563,-0.95629 -1.29425,-2.41952 -2.25055,-3.37582 -0.22156,-0.22156 -6.34996,-3.2754 -6.75165,-3.37582 -0.72778,-0.18195 -1.53886,0.23723 -2.25055,0 -0.50324,-0.16775 -0.65082,-0.88805 -1.12527,-1.12528 -0.3355,-0.16774 -0.78979,0.16775 -1.12528,0 -0.47446,-0.23723 -0.65082,-0.88804 -1.12527,-1.12527 -0.33549,-0.16775 -0.78979,0.16774 -1.12528,0 -0.47445,-0.23723 -0.65081,-0.88805 -1.12527,-1.12528 -0.33549,-0.16774 -0.78978,0.16775 -1.12528,0 -0.47445,-0.23723 -0.65081,-0.88804 -1.12527,-1.12527 -0.68329,-0.34165 -6.06836,0.34164 -6.75165,0 -0.47446,-0.23723 -0.65082,-0.88805 -1.12527,-1.12528 -0.0589,-0.0294 -3.31696,-0.0294 -3.37583,0 -0.47446,0.23723 -0.75018,0.75019 -1.12527,1.12528 -0.37509,0.37509 -0.83103,0.6839 -1.12528,1.12527 -0.13974,0.20961 -2.17844,4.42899 -2.25055,4.5011 -0.9563,0.9563 -2.41952,1.29425 -3.37582,2.25055 -0.59307,0.59307 -0.75018,1.50037 -1.12528,2.25055 -0.75018,1.50037 -1.27554,3.13609 -2.25055,4.5011 -0.92497,1.29496 -2.60298,1.98471 -3.37582,3.37582 -5.62637,10.12748 0,3.37583 -3.37582,10.12748 -0.97812,1.95623 -2.31366,3.71446 -3.37583,5.62637 -0.81465,1.46636 -1.17666,3.21244 -2.25055,4.5011 -0.86579,1.03895 -2.51003,1.2116 -3.37582,2.25055 -1.07389,1.28866 -1.4183,3.04465 -2.25055,4.5011 -0.67099,1.17422 -1.57957,2.2016 -2.25055,3.37582 -0.83225,1.45644 -1.4183,3.04466 -2.25055,4.5011 -0.67098,1.17422 -1.71781,2.13276 -2.25055,3.37582 -0.60921,1.4215 -0.70041,3.01407 -1.12527,4.5011 -0.32586,1.14051 -0.79942,2.23532 -1.12528,3.37583 -0.42487,1.48703 -0.35797,3.15832 -1.12527,4.5011 -0.78955,1.3817 -2.58628,1.99412 -3.37583,3.37582 -1.35481,2.37092 -0.89574,5.506 -2.25055,7.87692 -0.93049,1.62836 -2.33551,2.94063 -3.37582,4.5011 -1.75198,2.62796 -2.74913,6.37424 -4.5011,9.0022 -0.29425,0.44137 -0.83103,0.68391 -1.12528,1.12527 -0.46524,0.69787 -0.5322,1.65748 -1.12527,2.25055 -0.59307,0.59308 -1.55268,0.66003 -2.25055,1.12528 -0.88274,0.58849 -1.36781,1.66206 -2.25055,2.25055 -2.07743,1.38495 -4.67422,1.99087 -6.75165,3.37582 -3.73206,3.73207 1.06092,-0.53046 -2.25055,1.12528 -0.47445,0.23723 -0.62203,0.95753 -1.12527,1.12527 -0.71169,0.23723 -1.52277,-0.18194 -2.25055,0 -0.81369,0.20342 -1.45486,0.86005 -2.25055,1.12528 -0.35584,0.11861 -0.75018,0 -1.12528,0 -0.75018,0.37509 -1.45486,0.86004 -2.25054,1.12527 -0.71169,0.23723 -1.57957,-0.33549 -2.25055,0 -0.47446,0.23723 -0.65082,0.88805 -1.12528,1.12528 -0.33549,0.16774 -0.78978,-0.16775 -1.12527,0 -0.47446,0.23722 -0.68391,0.83102 -1.12528,1.12527 -0.69786,0.46524 -1.50036,0.75018 -2.25055,1.12528 -0.75018,0.37509 -1.45486,0.86004 -2.25055,1.12527 -0.35584,0.11861 -0.78978,-0.16775 -1.12527,0 -4.68313,2.34156 1.20296,-0.0777 -1.12528,2.25055 -1.6983,1.6983 -3.75091,3.00073 -5.62637,4.5011 z"
       id="path3019"
       inkscape:connector-curvature="0" />
  </g>
</svg>
