<?xml version="1.0" encoding="UTF-8" standalone="no"?>
<!-- Created with Inkscape (http://www.inkscape.org/) -->

<svg
   xmlns:dc="http://purl.org/dc/elements/1.1/"
   xmlns:cc="http://creativecommons.org/ns#"
   xmlns:rdf="http://www.w3.org/1999/02/22-rdf-syntax-ns#"
   xmlns:svg="http://www.w3.org/2000/svg"
   xmlns="http://www.w3.org/2000/svg"
   xmlns:sodipodi="http://sodipodi.sourceforge.net/DTD/sodipodi-0.dtd"
   xmlns:inkscape="http://www.inkscape.org/namespaces/inkscape"
   width="210mm"
   height="297mm"
   viewBox="0 0 744.09448819 1052.3622047"
   id="svg2"
   version="1.1"
   inkscape:version="0.91 r13725"
   sodipodi:docname="Mutant.svg">
  <defs
     id="defs4">
    <inkscape:path-effect
       effect="spiro"
       id="path-effect3640"
       is_visible="true" />
    <inkscape:path-effect
       effect="spiro"
       id="path-effect3636"
       is_visible="true" />
    <inkscape:path-effect
       effect="spiro"
       id="path-effect3624"
       is_visible="true" />
    <inkscape:path-effect
       effect="spiro"
       id="path-effect3564"
       is_visible="true" />
    <inkscape:path-effect
       effect="spiro"
       id="path-effect3560"
       is_visible="true" />
    <inkscape:path-effect
       effect="spiro"
       id="path-effect3556"
       is_visible="true" />
    <inkscape:path-effect
       effect="spiro"
       id="path-effect3513"
       is_visible="true" />
    <inkscape:path-effect
       effect="spiro"
       id="path-effect3509"
       is_visible="true" />
  </defs>
  <sodipodi:namedview
     id="base"
     pagecolor="#ffffff"
     bordercolor="#666666"
     borderopacity="1.0"
     inkscape:pageopacity="0.0"
     inkscape:pageshadow="2"
     inkscape:zoom="0.7"
     inkscape:cx="375"
     inkscape:cy="731.84153"
     inkscape:document-units="px"
     inkscape:current-layer="layer1"
     showgrid="false"
     inkscape:window-width="1366"
     inkscape:window-height="706"
     inkscape:window-x="-8"
     inkscape:window-y="-8"
     inkscape:window-maximized="1" />
  <metadata
     id="metadata7">
    <rdf:RDF>
      <cc:Work
         rdf:about="">
        <dc:format>image/svg+xml</dc:format>
        <dc:type
           rdf:resource="http://purl.org/dc/dcmitype/StillImage" />
        <dc:title></dc:title>
      </cc:Work>
    </rdf:RDF>
  </metadata>
  <g
     inkscape:label="Layer 1"
     inkscape:groupmode="layer"
     id="layer1">
    <g
       id="g3642">
      <g
         id="g3590">
        <path
           style="fill:#008000"
           id="path3416"
           sodipodi:type="arc"
           sodipodi:cx="205"
           sodipodi:cy="342.36221"
           sodipodi:rx="40.714287"
           sodipodi:ry="58.57143"
           sodipodi:start="3.4017751"
           sodipodi:end="3.1415927"
           sodipodi:open="true"
           d="m 165.65603,327.29431 a 40.714287,58.57143 0 0 1 47.2385,-42.39191 40.714287,58.57143 0 0 1 32.47572,65.05797 40.714287,58.57143 0 0 1 -43.01667,50.84941 40.714287,58.57143 0 0 1 -38.06787,-58.44757" />
        <path
           style="fill:#008000"
           id="path3418"
           sodipodi:type="arc"
           sodipodi:cx="262.85715"
           sodipodi:cy="432.36221"
           sodipodi:rx="44.285713"
           sodipodi:ry="48.57143"
           sodipodi:start="3.4017689"
           sodipodi:end="3.1415927"
           sodipodi:open="true"
           d="m 220.06189,419.86717 a 44.285713,48.57143 0 0 1 51.38209,-35.1546 44.285713,48.57143 0 0 1 35.32469,53.9504 44.285713,48.57143 0 0 1 -46.79002,42.16796 44.285713,48.57143 0 0 1 -41.40722,-48.46872" />
        <path
           style="fill:#008000"
           id="path3420"
           sodipodi:type="arc"
           sodipodi:cx="232.14285"
           sodipodi:cy="373.07648"
           sodipodi:rx="39.285713"
           sodipodi:ry="53.57143"
           sodipodi:start="3.4017689"
           sodipodi:end="3.1415927"
           sodipodi:open="true"
           d="m 194.17931,359.29518 a 39.285713,53.57143 0 0 1 45.58089,-38.77346 39.285713,53.57143 0 0 1 31.33642,59.50413 39.285713,53.57143 0 0 1 -41.50727,46.50877 39.285713,53.57143 0 0 1 -36.73221,-53.45815" />
        <path
           style="fill:#008000"
           id="path3422"
           sodipodi:type="arc"
           sodipodi:cx="295.71429"
           sodipodi:cy="360.21936"
           sodipodi:rx="42.857143"
           sodipodi:ry="59.285713"
           sodipodi:start="3.4017689"
           sodipodi:end="3.1415927"
           sodipodi:open="true"
           d="m 254.29952,344.96806 a 42.857143,59.285713 0 0 1 49.72461,-42.90929 42.857143,59.285713 0 0 1 34.18518,65.85122 42.857143,59.285713 0 0 1 -45.28065,51.46972 42.857143,59.285713 0 0 1 -40.07151,-59.16035" />
        <path
           style="fill:#008000"
           id="path3424"
           sodipodi:type="arc"
           sodipodi:cx="367.85715"
           sodipodi:cy="438.79077"
           sodipodi:rx="40.714287"
           sodipodi:ry="39.285713"
           sodipodi:start="3.4017689"
           sodipodi:end="3.1415927"
           sodipodi:open="true"
           d="m 328.51311,428.68449 a 40.714287,39.285713 0 0 1 47.23838,-28.43387 40.714287,39.285713 0 0 1 32.47593,43.63635 40.714287,39.285713 0 0 1 -43.01663,34.10644 40.714287,39.285713 0 0 1 -38.06793,-39.20264" />
        <path
           style="fill:#008000"
           id="path3426"
           sodipodi:type="arc"
           sodipodi:cx="355"
           sodipodi:cy="430.21936"
           sodipodi:rx="26.428572"
           sodipodi:ry="19.285715"
           sodipodi:start="3.4017689"
           sodipodi:end="3.1415927"
           sodipodi:open="true"
           d="m 329.46089,425.25809 a 26.428572,19.285715 0 0 1 30.66351,-13.95844 26.428572,19.285715 0 0 1 21.08086,21.42148 26.428572,19.285715 0 0 1 -27.92307,16.74316 26.428572,19.285715 0 0 1 -24.71076,-19.24493" />
        <path
           style="fill:#008000"
           id="path3428"
           sodipodi:type="arc"
           sodipodi:cx="336.42856"
           sodipodi:cy="437.36221"
           sodipodi:rx="33.57143"
           sodipodi:ry="39.285713"
           sodipodi:start="3.4017689"
           sodipodi:end="3.1415927"
           sodipodi:open="true"
           d="m 303.98699,427.25593 a 33.57143,39.285713 0 0 1 38.95094,-28.43387 33.57143,39.285713 0 0 1 26.7784,43.63636 33.57143,39.285713 0 0 1 -35.46986,34.10643 33.57143,39.285713 0 0 1 -31.38934,-39.20264" />
        <path
           style="fill:#008000"
           id="path3430"
           sodipodi:type="arc"
           sodipodi:cx="373.57144"
           sodipodi:cy="389.50507"
           sodipodi:rx="37.857143"
           sodipodi:ry="44.285713"
           sodipodi:start="3.4017689"
           sodipodi:end="3.1415927"
           sodipodi:open="true"
           d="m 336.98839,378.11253 a 37.857143,44.285713 0 0 1 43.92341,-32.05273 37.857143,44.285713 0 0 1 30.19691,49.19008 37.857143,44.285713 0 0 1 -39.99792,38.44725 37.857143,44.285713 0 0 1 -35.39649,-44.19207" />
        <path
           style="fill:#008000"
           id="path3432"
           sodipodi:type="arc"
           sodipodi:cx="349.28571"
           sodipodi:cy="335.93362"
           sodipodi:rx="43.57143"
           sodipodi:ry="39.285713"
           sodipodi:start="3.4017689"
           sodipodi:end="3.1415927"
           sodipodi:open="true"
           d="m 307.18069,325.82734 a 43.57143,39.285713 0 0 1 50.55335,-28.43387 43.57143,39.285713 0 0 1 34.75494,43.63636 43.57143,39.285713 0 0 1 -46.03534,34.10643 43.57143,39.285713 0 0 1 -40.73936,-39.20264" />
        <path
           style="fill:#008000"
           id="path3434"
           sodipodi:type="arc"
           sodipodi:cx="277.14285"
           sodipodi:cy="321.64792"
           sodipodi:rx="51.42857"
           sodipodi:ry="37.857143"
           sodipodi:start="3.4017689"
           sodipodi:end="3.1415927"
           sodipodi:open="true"
           d="m 227.44513,311.90914 a 51.42857,37.857143 0 0 1 59.66953,-27.39991 51.42857,37.857143 0 0 1 41.02221,42.04958 51.42857,37.857143 0 0 1 -54.33678,32.8662 51.42857,37.857143 0 0 1 -48.08581,-37.77709" />
        <path
           style="fill:#008000"
           id="path3436"
           sodipodi:type="arc"
           sodipodi:cx="428.57144"
           sodipodi:cy="408.79077"
           sodipodi:rx="35.714287"
           sodipodi:ry="56.42857"
           sodipodi:start="3.4017689"
           sodipodi:end="3.1415927"
           sodipodi:open="true"
           d="m 394.05913,394.27447 a 35.714287,56.42857 0 0 1 41.43718,-40.84137 35.714287,56.42857 0 0 1 28.48765,62.67767 35.714287,56.42857 0 0 1 -37.73388,48.98925 35.714287,56.42857 0 0 1 -33.39293,-56.30925" />
        <path
           style="fill:#008000"
           id="path3438"
           sodipodi:type="arc"
           sodipodi:cx="417.85715"
           sodipodi:cy="353.07648"
           sodipodi:rx="30.714285"
           sodipodi:ry="19.285715"
           sodipodi:start="3.4017689"
           sodipodi:end="3.1415927"
           sodipodi:open="true"
           d="m 388.17656,348.11521 a 30.714285,19.285715 0 0 1 35.63597,-13.95844 30.714285,19.285715 0 0 1 24.49938,21.42148 30.714285,19.285715 0 0 1 -32.45114,16.74316 30.714285,19.285715 0 0 1 -28.71791,-19.24493" />
        <path
           style="fill:#008000"
           id="path3440"
           sodipodi:type="arc"
           sodipodi:cx="332.85715"
           sodipodi:cy="398.79077"
           sodipodi:rx="15.714286"
           sodipodi:ry="13.571428"
           sodipodi:start="3.4017689"
           sodipodi:end="3.1415927"
           sodipodi:open="true"
           d="m 317.67173,395.29951 a 15.714286,13.571428 0 0 1 18.23236,-9.82261 15.714286,13.571428 0 0 1 12.53456,15.07438 15.714286,13.571428 0 0 1 -16.6029,11.78222 15.714286,13.571428 0 0 1 -14.69289,-13.54273" />
        <path
           style="fill:#008000"
           id="path3442"
           sodipodi:type="arc"
           sodipodi:cx="461.42856"
           sodipodi:cy="358.07648"
           sodipodi:rx="28.571428"
           sodipodi:ry="12.857142"
           sodipodi:start="3.4017689"
           sodipodi:end="3.1415927"
           sodipodi:open="true"
           d="m 433.81871,354.76897 a 28.571428,12.857142 0 0 1 33.14974,-9.30563 28.571428,12.857142 0 0 1 22.79012,14.28099 28.571428,12.857142 0 0 1 -30.1871,11.1621 28.571428,12.857142 0 0 1 -26.71434,-12.82995" />
        <path
           style="fill:#008000"
           id="path3444"
           sodipodi:type="arc"
           sodipodi:cx="261.42856"
           sodipodi:cy="487.36221"
           sodipodi:rx="10"
           sodipodi:ry="16.428572"
           sodipodi:start="3.4017689"
           sodipodi:end="3.1415927"
           sodipodi:open="true"
           d="m 251.76511,483.13595 a 10,16.428572 0 0 1 11.60241,-11.89053 10,16.428572 0 0 1 7.97654,18.24793 10,16.428572 0 0 1 -10.56548,14.26269 10,16.428572 0 0 1 -9.35002,-16.39383" />
        <path
           style="fill:#008000"
           id="path3448"
           sodipodi:type="arc"
           sodipodi:cx="391.42856"
           sodipodi:cy="481.64792"
           sodipodi:rx="8.5714283"
           sodipodi:ry="22.142857"
           sodipodi:start="3.4017689"
           sodipodi:end="3.1415927"
           sodipodi:open="true"
           d="m 383.1456,475.95165 a 8.5714283,22.142857 0 0 1 9.94493,-16.02636 8.5714283,22.142857 0 0 1 6.83703,24.59503 8.5714283,22.142857 0 0 1 -9.05613,19.22363 8.5714283,22.142857 0 0 1 -8.0143,-22.09603" />
        <path
           style="fill:#ff8080;fill-rule:evenodd;stroke:#000000;stroke-width:1px;stroke-linecap:butt;stroke-linejoin:miter;stroke-opacity:1"
           d="m 218.91827,351.64793 10,14.28571 8.57143,-15.71429 z"
           id="path3344"
           inkscape:connector-curvature="0" />
        <path
           style="fill:none;fill-rule:evenodd;stroke:#000000;stroke-width:1px;stroke-linecap:butt;stroke-linejoin:miter;stroke-opacity:1"
           d="m 228.91827,364.50507 c -8.57143,17.14286 -25.71429,5.71428 -25.71429,5.71428 l -1.42857,-4.28571 0,0"
           id="path3346"
           inkscape:connector-curvature="0" />
        <path
           style="fill:none;fill-rule:evenodd;stroke:#000000;stroke-width:1.03370047px;stroke-linecap:butt;stroke-linejoin:miter;stroke-opacity:1"
           d="m 227.8079,363.94573 c 9.18927,17.08619 27.5678,5.69539 27.5678,5.69539 l 1.53154,-4.27154 0,0"
           id="path3346-3"
           inkscape:connector-curvature="0" />
        <ellipse
           style="fill:#ffffff"
           id="path3363"
           cx="211.77541"
           cy="335.93362"
           rx="10"
           ry="7.1428571" />
        <ellipse
           style="fill:#ffffff"
           id="path3365"
           cx="259.6326"
           cy="328.07648"
           rx="16.428572"
           ry="15" />
        <ellipse
           style="fill:#000000"
           id="path3373"
           cx="266.77542"
           cy="328.07648"
           rx="6.4285712"
           ry="5" />
        <circle
           style="fill:#000000"
           id="path3375"
           cx="206.06113"
           cy="337.36218"
           r="4.2857141" />
        <path
           style="fill:#ff5555"
           id="path3396"
           sodipodi:type="arc"
           sodipodi:cx="241.06111"
           sodipodi:cy="373.07651"
           sodipodi:rx="7.8571424"
           sodipodi:ry="21.428572"
           sodipodi:start="0"
           sodipodi:end="3.1415927"
           sodipodi:open="true"
           d="m 248.91825,373.07651 a 7.8571424,21.428572 0 0 1 -3.92857,18.55769 7.8571424,21.428572 0 0 1 -7.85714,-1e-5 7.8571424,21.428572 0 0 1 -3.92857,-18.55768" />
        <path
           style="fill:#008000"
           id="path3515"
           sodipodi:type="arc"
           sodipodi:cx="333.57144"
           sodipodi:cy="482.36221"
           sodipodi:rx="10.714286"
           sodipodi:ry="21.428572"
           sodipodi:start="3.4017689"
           sodipodi:end="3.1415927"
           sodipodi:open="true"
           d="m 323.21775,476.84969 a 10.714286,21.428572 0 0 1 12.43115,-15.50938 10.714286,21.428572 0 0 1 8.5463,23.80165 10.714286,21.428572 0 0 1 -11.32017,18.60351 10.714286,21.428572 0 0 1 -10.01787,-21.38326" />
        <path
           style="fill:#008000"
           id="path3517"
           sodipodi:type="arc"
           sodipodi:cx="228.57141"
           sodipodi:cy="465.21933"
           sodipodi:rx="10"
           sodipodi:ry="24.285715"
           sodipodi:start="3.4017689"
           sodipodi:end="3.1415927"
           sodipodi:open="true"
           d="m 218.90796,458.97181 a 10,24.285715 0 0 1 11.60241,-17.5773 10,24.285715 0 0 1 7.97655,26.9752 10,24.285715 0 0 1 -10.56549,21.08398 10,24.285715 0 0 1 -9.35002,-24.23436" />
        <path
           style="fill:#008000"
           id="path3519"
           sodipodi:type="arc"
           sodipodi:cx="327.85715"
           sodipodi:cy="390.93362"
           sodipodi:rx="46.428574"
           sodipodi:ry="60.000004"
           sodipodi:start="3.4017689"
           sodipodi:end="3.1415927"
           sodipodi:open="true"
           d="m 282.99114,375.49857 a 46.428574,60.000004 0 0 1 53.86833,-43.42627 46.428574,60.000004 0 0 1 37.03395,66.64462 46.428574,60.000004 0 0 1 -49.05405,52.08983 46.428574,60.000004 0 0 1 -43.4108,-59.87313" />
        <path
           style="fill:#008000;fill-rule:evenodd;stroke:#000000;stroke-width:1px;stroke-linecap:butt;stroke-linejoin:miter;stroke-opacity:1"
           d="m 188.57143,288.07649 17.14286,-25.71429 12.85714,27.14286"
           id="path3554"
           inkscape:path-effect="#path-effect3556"
           inkscape:original-d="m 188.57143,288.07649 c 14.28571,-35.71429 17.14286,-25.71429 17.14286,-25.71429 l 12.85714,27.14286"
           inkscape:connector-curvature="0" />
        <path
           style="fill:#008000;fill-rule:evenodd;stroke:#000000;stroke-width:1px;stroke-linecap:butt;stroke-linejoin:miter;stroke-opacity:1"
           d="m 170,325.21935 -28.57143,12.85714 27.14286,17.14286"
           id="path3558"
           inkscape:path-effect="#path-effect3560"
           inkscape:original-d="m 170,325.21935 c -30,8.57143 -28.57143,12.85714 -28.57143,12.85714 l 27.14286,17.14286"
           inkscape:connector-curvature="0" />
        <path
           style="fill:#008000;fill-rule:evenodd;stroke:#000000;stroke-width:1px;stroke-linecap:butt;stroke-linejoin:miter;stroke-opacity:1"
           d="m 274.28571,283.79078 28.57143,-37.14286 11.42857,55.71428 0,0"
           id="path3562"
           inkscape:path-effect="#path-effect3564"
           inkscape:original-d="m 274.28571,283.79078 c 20,-32.85715 28.57143,-37.14286 28.57143,-37.14286 l 11.42857,55.71428 0,0"
           inkscape:connector-curvature="0" />
      </g>
      <path
         inkscape:connector-curvature="0"
         inkscape:original-d="m 285.71429,282.3622 c 10,-17.14285 12.85714,-18.57142 12.85714,-18.57142 l 5.71428,22.85714"
         inkscape:path-effect="#path-effect3624"
         id="path3622"
         d="m 285.71429,282.3622 12.85714,-18.57142 5.71428,22.85714"
         style="fill:#ff0000;fill-rule:evenodd;stroke:#000000;stroke-width:1px;stroke-linecap:butt;stroke-linejoin:miter;stroke-opacity:1" />
      <path
         inkscape:connector-curvature="0"
         inkscape:original-d="m 197.14286,285.21935 7.14285,-12.85715 8.57143,15.71429"
         inkscape:path-effect="#path-effect3636"
         id="path3634"
         d="m 197.14286,285.21935 7.14285,-12.85715 8.57143,15.71429"
         style="fill:#ff0000;fill-rule:evenodd;stroke:#000000;stroke-width:1px;stroke-linecap:butt;stroke-linejoin:miter;stroke-opacity:1" />
      <path
         inkscape:connector-curvature="0"
         inkscape:original-d="M 164.28571,333.79078 C 150,336.64792 150,336.64792 150,336.64792 l 15.71429,11.42857 -1.42858,-1.42857"
         inkscape:path-effect="#path-effect3640"
         id="path3638"
         d="M 164.28571,333.79078 150,336.64792 l 15.71429,11.42857 -1.42858,-1.42857"
         style="fill:#ff0000;fill-rule:evenodd;stroke:#000000;stroke-width:1px;stroke-linecap:butt;stroke-linejoin:miter;stroke-opacity:1" />
    </g>
  </g>
</svg>
